<svg xmlns="http://www.w3.org/2000/svg" viewBox="0 0 671.56 467.68"><defs><style>.cls-1{isolation:isolate;}.cls-2{fill:#d27955;stroke:#d27955;stroke-width:1.52px;}.cls-16,.cls-2,.cls-25,.cls-30{stroke-miterlimit:10;}.cls-2,.cls-3,.cls-5,.cls-7,.cls-8,.cls-9{fill-rule:evenodd;}.cls-3{fill:#ffc31a;}.cls-4{fill:#bbdb65;}.cls-5{fill:#ff92be;}.cls-6{opacity:0.3;}.cls-6,.cls-7{mix-blend-mode:multiply;}.cls-7,.cls-8{fill:#bd6456;}.cls-9{fill:#8c504d;}.cls-10{fill:#ffb8d8;}.cls-11{fill:#cf99ff;}.cls-12{fill:#d6f47a;}.cls-13{fill:#f2bdff;}.cls-14{fill:#ffda88;}.cls-15{opacity:0.6;}.cls-16,.cls-25,.cls-30{font-size:14px;fill:#fff;stroke:#fff;stroke-width:0.5px;font-family:Afterglow-Regular, Afterglow;}.cls-16,.cls-24{letter-spacing:0.08em;}.cls-17{letter-spacing:0.02em;}.cls-18,.cls-30{letter-spacing:0.08em;}.cls-19{letter-spacing:0.18em;}.cls-20{letter-spacing:0.11em;}.cls-21{letter-spacing:0.06em;}.cls-22{letter-spacing:0.07em;}.cls-23{letter-spacing:0.06em;}.cls-25,.cls-31{letter-spacing:0.1em;}.cls-26{letter-spacing:0.08em;}.cls-27{letter-spacing:0.06em;}.cls-28{letter-spacing:0.06em;}.cls-29{letter-spacing:0.07em;}.cls-32{letter-spacing:0.16em;}.cls-33{letter-spacing:0.13em;}.cls-34{letter-spacing:0.05em;}.cls-35{letter-spacing:0.1em;}.cls-36{letter-spacing:0.01em;}</style></defs><title>Recurso 4</title><g class="cls-1"><g id="Capa_2" data-name="Capa 2"><g id="Capa_1-2" data-name="Capa 1"><path class="cls-2" d="M240.2,324a8.05,8.05,0,0,1-1.53.45c-16.78,1-32.57,5.78-47.64,13.34-2.44,1.22-3.09.83-4.48-2.11-1.1-2.33.42-3.11,2-3.67,10.28-3.65,20.56-7.32,30.92-10.73,1.92-.63,4.19-.22,6.29-.14,3.65.14,7.3.3,10.94.65a16.08,16.08,0,0,1,3.66,1.27C240.31,323.38,240.26,323.69,240.2,324Z"/><path class="cls-2" d="M252.15,340.42c-5,3.18-10.36,4.42-16,4.89-8.56.72-17.16,1.16-25.38,4.09-1.46.52-2.88,1.13-4.36,1.58-.83.25-1.9.62-2.57.29a12.26,12.26,0,0,1-2.57-2.39c.72-.67,1.34-1.63,2.18-1.95,10.72-4,21.86-6.14,33.12-7.7,3.06-.42,6.09-1,9.14-1.39C248.26,337.49,250.62,337.58,252.15,340.42Z"/><path class="cls-2" d="M266.66,344.15c-6.51,3.55-13,7.22-20.45,8.23-9.8,1.33-19.62,2.48-29.44,3.68-1.63.2-3.87.8-4.27-1.44s2-2.28,3.43-2.72c9.17-2.82,18.67-3.27,28.12-4a44.6,44.6,0,0,0,13.47-3c2.76-1.12,5.89-1.26,8.85-1.83C266.47,343.41,266.56,343.78,266.66,344.15Z"/><path class="cls-2" d="M334.57,343c-2.27,7.36-15.63,16.95-24.94,17.68.53-.87.91-1.54,1.34-2.19q5.19-7.79,10.4-15.57c2-3,3.16-3.41,6.6-2.33,2,.64,4,1.32,6,2A2.46,2.46,0,0,1,334.57,343Z"/><path class="cls-2" d="M245.49,332.39l-9.57,1.76c-8,1.48-16,2.66-23.92,4.55-5,1.19-9.8,3.43-14.69,5.22a7.88,7.88,0,0,1-2,.79c-.7,0-1.94-.31-2-.66a4.46,4.46,0,0,1,.51-2.66c.25-.48,1.06-.74,1.67-.93,10.34-3.18,20.63-6.51,31-9.39,3.8-1.05,7.88-1,11.82-1.44a11.51,11.51,0,0,0,1.68-.21C243.16,328.61,243.83,328.93,245.49,332.39Z"/><path class="cls-2" d="M283.47,341.9c-1.71,2.84-3.21,5.86-5.17,8.51-7.47,10.11-15.1,20.1-22.64,30.16-1.55,2.06-3.2,3.62-6.41,2.41a25.57,25.57,0,0,1,2-3.59c7.43-9.39,14.94-18.71,22.38-28.09,2.12-2.67,4-5.55,6.12-8.2a15,15,0,0,1,2.95-2.23Z"/><path class="cls-2" d="M278.79,385.87c.6-1.2.91-2.79,1.85-3.54a43.8,43.8,0,0,0,16.22-27.88c.67-4.15,1.64-8.26,2.44-12.39.23-1.16.57-2.38,1.94-1.8a2.65,2.65,0,0,1,1.1,2.28c-1.38,7.1-2.53,14.28-4.49,21.22-2.62,9.23-9,15.83-15.79,22a6.91,6.91,0,0,1-2.37.89Z"/><path class="cls-2" d="M269.52,383.85c7.3-7.44,11.94-16.65,16.46-25.91,1.94-4,3.54-8.16,5.38-12.2a22.08,22.08,0,0,1,2-3l.95.22a13.08,13.08,0,0,1,0,3.13c-3.76,14.61-11.27,27-20.85,38.19C272.06,385.86,270.82,385.76,269.52,383.85Z"/><path class="cls-2" d="M321,362.23c1.41-.82,2.83-1.61,4.23-2.45A35.52,35.52,0,0,0,338.44,347c1.52-2.63,3.68-2.72,6.64-.48,1.68,1.26,1.61,2.92-.27,5.19C338.57,359.23,330.8,363.17,321,362.23Z"/><path class="cls-2" d="M318.27,340.58a13.91,13.91,0,0,1-1.13,2.66c-2.14,3.36-4.36,6.67-6.61,10a4.33,4.33,0,0,1-1.71,1.69c-.92.32-2.29.58-2.91.1s-.63-2-.34-2.91c1.47-4.63,3.12-9.19,4.72-13.78.69-1.95,1.4-3.93,4-3.48C316.32,335.18,318.2,337.66,318.27,340.58Z"/><path class="cls-2" d="M286.54,346.8c-.33.91-.59,1.86-1,2.72-5.81,12.24-12.74,23.71-21.81,33.67a5.2,5.2,0,0,1-1,1.06c-.38.22-1.05.43-1.3.24a1.88,1.88,0,0,1-.67-1.43,6.71,6.71,0,0,1,1-2.53q11.68-16.66,23.42-33.28c.23-.33.44-.67.65-1Z"/><path class="cls-2" d="M266,352.25c-1.39,1.27-2.82,2.5-4.16,3.82-6.72,6.61-11.89,14.43-16.29,22.84a11.74,11.74,0,0,1-1.93,3.18c-.64.59-1.82.57-2.76.82-.2-1-.84-2.13-.52-2.82a70,70,0,0,1,4.76-8.78,79.23,79.23,0,0,1,18.36-19,10.56,10.56,0,0,1,2.18-1Z"/><path class="cls-2" d="M239.41,358.09c-5.45,7.25-10.77,14.3-16.22,21.54l-3.83-2.16C221.6,371.24,234.79,358.33,239.41,358.09Z"/><path class="cls-2" d="M269.71,338.11c-6.38.19-21.09-11.46-22.54-17.65a6.35,6.35,0,0,1,6,1.58q7.69,7.35,15.34,14.74C268.83,337.11,269.13,337.48,269.71,338.11Z"/><path class="cls-2" d="M249,358.48c-4.89,7.45-9.81,15-14.74,22.45-1.48,2.25-1.83,2.31-5,.83C234.14,372.27,240.48,364.28,249,358.48Z"/><path class="cls-2" d="M268.42,323.42c1.94.84,4.2,1.27,5.75,2.6,3.68,3.16,7,6.75,10.49,10.17.34.34.59.76,1.31,1.7-1.68-.08-2.91.14-3.93-.24-6.44-2.38-10.79-7.2-14.06-13.19Z"/><path class="cls-2" d="M201.13,363.82a5.62,5.62,0,0,1-5,5.26,3.2,3.2,0,0,1-3.64-3.15,6,6,0,0,1,5.17-5.46A3.23,3.23,0,0,1,201.13,363.82Z"/><path class="cls-2" d="M222.17,364.74c-2.61,3.2-4.92,6.35-7.58,9.12-.77.8-2.56.53-4.14.79C212,368.87,217.2,364.58,222.17,364.74Z"/><path class="cls-2" d="M207.83,364.18l-3.91,9c-3.82-1.39-4.27-2.82-2-5.82C203.34,365.51,204.92,364,207.83,364.18Z"/><path class="cls-2" d="M193,356.65c-.1,2.2-3.94,5.27-5.74,4.81-1.41-.37-2.17-2.1-1.16-3.11A17.46,17.46,0,0,1,190.6,355C191.91,354.37,192.92,355.23,193,356.65Z"/><path class="cls-2" d="M175.88,342.45a35.2,35.2,0,0,1,6.2-1.3c.71,0,1.45,1.46,2.18,2.25-.73.54-1.41,1.41-2.2,1.54C180,345.28,178,345.12,175.88,342.45Z"/><path class="cls-2" d="M288.93,334.56c-2.09-2.37-3.77-4.26-5.44-6.18-.36-.41-.66-.89-1.05-1.43C286.64,326.78,288.84,329.21,288.93,334.56Z"/><path class="cls-2" d="M299.2,330.2c1.08.56,2.46.87,3.13,1.76.43.58,0,2.08-.37,3a2.22,2.22,0,0,1-1.75,1c-.39,0-1-.85-1.13-1.42a32,32,0,0,1-.55-3.66Z"/><path class="cls-2" d="M182,353.59c1.39-2.23,2.77-4.25,5.54-4.35a2.18,2.18,0,0,1,1.22.45,1,1,0,0,1,0,.85c-1.86,1.28-3.74,2.53-5.66,3.71C182.87,354.34,182.4,353.87,182,353.59Z"/><path class="cls-2" d="M292.51,329.59c2.72,1.36,2.27,3.74,1.65,6.19Z"/><path class="cls-3" d="M440.49,58.67c-5.51-1.43,35.69,83.82,36.93,87s56,20.47,60.93,21.11,14.16-8.32,11.7-17.28-19.7-29.43-20.32-31.35S526.66,106,519.27,100.9,470,67,466.34,65.06,443,59.31,440.49,58.67Z"/><path class="cls-3" d="M209.65,291.57c2.33-5,4.61-9.45,9.24-11.86-1.3-2.21-2.69-2.45-4.54-.92-3.86,3.22-4.62,3.27-8.75.55-6.66-4.39-13.3-8.81-20-13.16a3.66,3.66,0,0,0-2.75-.51c3.26,3.35,6.61,6.61,9.75,10.08,5.27,5.86,3.86,12.77-3.23,15.82-3.45,1.49-7,2.63-10.56,3.89-1.28.45-2.21,1.06-1.66,3,3.11-.31,6.26-.52,9.37-1s5.36.75,7.14,3.28c3.54,5,4.47,10.63,3.56,16.59a5.57,5.57,0,0,1-2.44,3.5c-13.1,7.29-26.78,10.1-41.34,5.21-6.95-2.34-11.2-6.36-12.87-12.25,3-3.5,6.37-4.64,10.85-2.64,5,2.22,10.24,3.81,15.41,5.58,3.74,1.29,5.94.9,8-1.43-14.17-2.34-24.1-10.93-31.84-22.82l-.74.11c-.12,1.09-.26,2.18-.34,3.28,0,.31.24.65.24,1,0,1.53,2.06,3.07.11,4.55s-4.51,2.27-6.86,1a8.32,8.32,0,0,1-3.4-3.43,77.77,77.77,0,0,1-7.67-41.72c.43-4.43,1.9-5.53,6.16-4.91a24.29,24.29,0,0,1,5.69,1.32c1.22.49,2.15,1.74,3.21,2.65l1.53,1.34c.43-.63,1.19-1.24,1.23-1.89q.4-6.83.52-13.67a8.89,8.89,0,0,0-.85-2.6l-.65.05c-.69,2.11-1.38,4.21-2.22,6.82-4.84-1.6-9.63-2.87-14.18-4.78-3.71-1.56-5.56-5.09-5.41-9.18.39-9.89,1.28-19.72,5.36-28.9.92-2.09,2.28-2.83,4.29-1.88,5.09,2.39,10.41,4.35,13.8,9.54.55.83,2.47,1,3.73,1,7.67-.36,15.27-.05,22.73,2,.87.24,1.72.52,2.58.76,4.39,1.28,6.86,4.23,7.41,9,.19,1.67.66,3.31,1,5l.91-.11c0-.76,0-1.52,0-2.28-.2-4.38,1.19-8.23,4.67-10.59,9-6.08,17.84-12.48,28.64-14.7,6-1.23,11.68-.57,16.24,4.32,4.4,4.73,8.82,9.45,13.19,14.21,1.91,2.07,3.7,4.27,5.63,6.32A10.73,10.73,0,0,1,252,237.61a15.84,15.84,0,0,1-11.56,10.9c-7.31,1.93-14.67,3.68-22,5.56-1.21.31-2.87.4-2.42,2.83,14.05-1.42,28.13-6,42,1.17l.27-.76c-1.21-1.61-2.34-3.3-3.65-4.81-2.18-2.52-2.89-5.2-1.34-8.35.59-1.19,1-2.49,1.56-3.7,2.45-5.24,4.7-6.48,10.34-5.43,5.43,1,10.88,2,16.22,3.39,11.18,2.9,22.29,6,33.42,9.11a25.91,25.91,0,0,1,3.4,1.36,6.87,6.87,0,0,1,4.43,7.58c-.08.88,0,1.77,0,3.19,2-1.68,3.62-3,5.16-4.44a4.18,4.18,0,0,1,4.72-1c17.56,6.54,35.18,12.91,52.65,19.7,5.51,2.14,10.71,5.23,15.93,8.11,8,4.4,13.19,11.31,16.14,20.13.38,1.14.84,2.27,1.26,3.4l.72-.07c0-1.63,0-3.26,0-4.88.09-4.84,2.32-8.14,6.66-9.89,2.65-1.06,5.3-2.11,7.94-3.19.69-.28,1.35-.65,2-1-.07-.27-.13-.55-.19-.82a20.92,20.92,0,0,0-3.65.41c-7.7,2.27-14.84,1.05-21.82-3-8.44-4.88-17.16-9.23-25.6-14.09a56.24,56.24,0,0,0-19.42-6.9,43,43,0,0,1-24.26-12c-.8-.8-1.95-1.2-2.83-1.93-1.87-1.55-3.64-3.23-5.5-4.79-.83-.7-1.9-1.86-2.68-1.72-10.11,1.81-19.68-1.07-29.32-3.42-12.39-3-24.83-5.87-37.15-9.17a23.84,23.84,0,0,1-8.46-4.73c-8.69-7.09-15.71-15.8-22.08-25.18-4.53-6.65-6-13.9-5.67-21.78.16-3.71.43-7.42.63-11.13a4.17,4.17,0,0,0-.57-2.56,22.77,22.77,0,0,0-1.18,2.8c-1.75,6.33-3.51,12.65-5.12,19a13.55,13.55,0,0,1-7.53,9.35c-10.57,5.19-21.1,10.49-31.68,15.65a7.23,7.23,0,0,1-4,.74c-8.37-1.17-16.71-2.54-25.07-3.78a4.1,4.1,0,0,1-3.87-4.08,25.61,25.61,0,0,0-1.66-7l-2.33,6.67c-4.45-.42-9.45-5.62-10.36-11.13a17,17,0,0,1,.11-7,115.24,115.24,0,0,1,5.2-15.75c3.51-8.08,17.59-12.49,24.79-2.53a3.65,3.65,0,0,1,.27,4.58c-1.63,2.74-3.08,5.6-4.61,8.41l.55.37a6.72,6.72,0,0,0,.73-.56c6.62-7.18,14.86-8.4,23.82-7a10.41,10.41,0,0,1,6.64,4.34,16.78,16.78,0,0,0,3.08,3.33c-.07-1.3-.11-2.6-.22-3.9-.83-10.2,1.83-19.74,5.39-29,5.24-13.67,13-25.46,24.54-34.29,2.23-1.7,4.11-1.92,6.86-1.15,4.1,1.15,8.47,1.21,12.71,1.79,2.29.32,4.56.74,7,1.14l-1,3.56c.26.11.44.26.53.22,11.5-5.5,23.79-5.54,36-5.35,5.22.08,8.94,3.17,11.17,8.11a34.93,34.93,0,0,1,3.06,15c0,1.51,0,3,0,4.07,2.67-1.4,5.38-3.49,8.39-4.22s6.53-.16,10.5-.16c-2.56-1.13-4.55-2.18-6.65-2.9a12.57,12.57,0,0,1-6.59-5.63c-4.23-6.58-8.67-13-13.24-19.39-1.82-2.53-4-4.71-3.26-8.58l-2.83.5c-.49,6.91-2.47,8.83-9.23,9.67-16.31,2-32.45.76-48.46-2.59-3.84-.81-7.47-2.64-11.65-4.16l3.07,5.86a71.73,71.73,0,0,0-16,16.55A93.29,93.29,0,0,0,190,161.44c-.44,2.24-1.4,3.41-3.48,3.87-5.67,1.27-11.3,1.57-16.72-1-6.56-3.12-8.49-8.6-5.55-15.42.58-1.34,1.25-2.63,1.88-3.95l-.67-.42c-1.71,2.87-3.57,5.64-5.07,8.62a4.93,4.93,0,0,1-5,3.12c-5.85-.14-8.58-4.4-5.42-9.46,8.34-13.32,18.75-24.19,34.09-28.61,4.52-1.3,4.52-1.31,7.87,2.22,3.33-5.14,7.35-9.54,12.87-12.22-.13-.35-.27-.69-.4-1l-9.06,1.73c-1.33-2.56-.93-5,1.8-7.12a144.8,144.8,0,0,1,13.74-10c8.34-5.06,16.87-9.81,25.47-14.36a21.62,21.62,0,0,1,19.37-.44c2.73,1.19,5,3.46,8,5.62l4.56-2.23-14.93-9.68a10.46,10.46,0,0,1,1.52-1.78c10-7.4,21-11.63,33.51-10.68a16.4,16.4,0,0,1,11.89,6.64c10.57,13.38,21.34,26.61,30,41.48,1.65,2.83,4,4.64,6.66,6.46a54.3,54.3,0,0,1,8.41,7.87c1.84,2,1.71,4.43.07,6.61,9.59,4,11.46,13.15,13.74,21.91a54,54,0,0,1,.67,6,18.6,18.6,0,0,1-1.3,10.37,13.09,13.09,0,0,0-.55,2.09l.63.43c.53-.75,1.38-1.43,1.56-2.26a33.23,33.23,0,0,1,7.29-15.18c-11.06-14.07-12-17.24-9.86-31.89-3.72,1.16-5.85-1.59-8.36-3.49-4.27-3.23-8.57-6.41-12.79-9.71-7.34-5.72-12-13.68-16.42-21.76a9.7,9.7,0,0,1,1.28-11.73,37.75,37.75,0,0,0,4-5.67c-4.31.81-7.31,4.05-10.83,6.17-3.88-2.71-4.81-6.58-2.36-10.79a29,29,0,0,1,16.3-13.35c11.9-3.91,24.15-5.83,36.54-3.57,7.42,1.36,14.62,3.85,22.13,5,3.68.58,7.06,3.17,10.88,5l-2.73,3.17c1.81.15,3.31,0,4.58.43,11.45,4.23,20.57,11.1,24.33,23.82a12,12,0,0,1-.82,9.35c-2.59,4.77-5.28,9.5-8.23,14-2.19,3.36-5.49,4.31-9.28,3.08-4.26-1.39-8.59-2.59-12.76-4.23a11,11,0,0,1-4.78-3.59c-5.43-7.69-10.61-15.57-15.88-23.38-2.83-4.21-3.62-9-3.45-14a3.4,3.4,0,0,0-.92-2.41c-.33,2.29-.53,4.61-1,6.86a5.4,5.4,0,0,1-5.33,4.63c-5.49.41-11,1-16.53,1.54,0,2.54,1.27,3.22,3.48,2.92,2.73-.38,5.49-.62,8.24-.79a19.59,19.59,0,0,1,17.85,8.47c4.35,6,8,12.33,8.56,20.09.12,1.7,1,2.4,2.58,2.76q7.5,1.66,14.91,3.69a8.29,8.29,0,0,1,6.18,7.13c2.42,15.85,2.21,31.33-6.57,45.45-1.32,2.12-2.69,4.23-3.85,6.45-1.89,3.62-4.91,5.24-8.68,5.67-2.31.26-4.63.47-6.35.64l24.05,7c-1.69-1.6-2.88-2.76-4.1-3.89-2.83-2.62-3.11-4.12-1.29-7.48,1.63-3,3.25-6,5-9s3.55-3.73,6.6-2.9c18.29,5,36.66,9.67,54.41,16.6a12.82,12.82,0,0,1,8.42,9.38,67,67,0,0,1,1.6,8.17c.78,7-.59,13.22-5.76,18.26a32.85,32.85,0,0,0-5.13,6.81c2.26-1.26,4.58-2.38,6.74-3.79a15.83,15.83,0,0,1,12.4-2.22q5.73,1.2,11.39,2.68c4.05,1.06,5.31,2.8,5.47,7.18a33,33,0,0,0,.26,4.51c4.82-5.52,9.81-10.81,11-18.41l-.67-.63a10.83,10.83,0,0,0-2,1.69,6.94,6.94,0,0,1-7.93,3c-5.44-1.38-10.89-2.72-16.28-4.28a4.71,4.71,0,0,1-2.61-2.36,46.25,46.25,0,0,1-3.76-24.18,13.2,13.2,0,0,1,4.93-9l3.89-3.3-.27-.62a17.15,17.15,0,0,0-2.48.82,21.83,21.83,0,0,1-16.6,1.41q-23.58-6.87-47.18-13.62c-2-.59-4.09-1.08-6.12-1.67a4.06,4.06,0,0,1-3.21-4.22c.12-11,.19-22.1.51-33.15a12.83,12.83,0,0,1,2-5.62c4.21-7.32,8.5-14.6,12.95-21.76,5-8,12.19-12,21.4-11.56a46.65,46.65,0,0,1,9.87,1.27,14.9,14.9,0,0,1,9.81,8.84c-3,0-6,0-9,0-.2,0-.39.48-.84,1.08.95.4,1.7.75,2.48,1,2.93,1,5.95,1.78,8.78,3,6.75,3,11.41,8.24,14.47,15.07a9.48,9.48,0,0,1-.18,8.54c-1.62,3.12-3.22,6.26-4.91,9.33-1.27,2.32-3,3.53-5.83,2.86-3.24-.76-6.58-1.11-9.88-1.57-4.39-.63-8.62-1.67-12.31-4.41a14.72,14.72,0,0,0-2.12-1,18.56,18.56,0,0,1,1.78,15.66l.61.36c1.12-1.3,2.25-2.58,3.35-3.9a8.8,8.8,0,0,1,8.53-3.2,56.75,56.75,0,0,1,28.58,11.94c2.71,2.18,4,2.29,6.79.2a31.88,31.88,0,0,1,12.09-5.77A15,15,0,0,1,526.09,144c6.21,6.21,12.34,12.51,16.19,20.74a43.63,43.63,0,0,0,3.42,5.28l1.11-.38c-.2-2.34-.53-4.69-.56-7a35.06,35.06,0,0,1,.44-7c.39-2,2.14-2.66,3.71-1.31a18.37,18.37,0,0,1,4.17,4.79c5.13,9,7.24,19,8.47,29.34.81,6.78,2.08,13.5,3,20.27a83,83,0,0,1-2,32.13,169.14,169.14,0,0,1-6.32,19.41c-5.42,13.53-23.11,22.34-36,18.1.21-2.09.42-4.26.63-6.43l-.53-.14c-.56,1.07-1.11,2.16-1.7,3.22-2.49,4.46-6.12,6.25-11,5.55-4.11-.59-8.28-.83-12.3-1.8a15.8,15.8,0,0,1-6.51-3.48c-2.46-2.16-2.42-3.76-.84-6.95-3.21.37-6.29.66-9.35,1.12a7.33,7.33,0,0,1-6.69-2.21c-4.62-4.72-9.2-9.47-13.82-14.24l4.6-2.07c-4.19-.53-7.71-.91-11.21-1.43a16.86,16.86,0,0,1-12.46-8.37c-1.78-2.93-3.66-5.79-5.38-8.75-2.21-3.8-1.87-5.66,1.34-8.56.67-.61,1.34-1.2,2.51-2.23-3.69.78-6.76,1.54-9.87,2.07-6.67,1.13-9.93-.6-13.14-6.78-.57-1.1-1.11-2.21-1.94-3.86-.42,2.08-.73,3.59-1.13,5.58-7.07-1.29-14.15-2.2-21-3.95a111.4,111.4,0,0,1-16-5.82q-19-8.08-37.89-16.59c-5.27-2.38-10.35-5.21-15.51-7.86-2.84-1.45-5.1-3.39-4.94-7.69-4.72,5.58-10.46,5.08-16.24,4.47-3.47-.37-7-.55-10.42-1.1-12-1.9-20.38-10.63-22.16-23.12-.47-3.22-.22-6.55-.29-9.83,0-1.48,0-2.95,0-4.43l-.63-.1c-1.31,5.07-2.5,10.17-4,15.18a8.72,8.72,0,0,0,1.78,8.43c2.75,3.55,5.2,7.36,8,10.84,1.8,2.22,1.78,4,.21,6.3-2.6,3.78-5,7.72-7.42,11.6a5,5,0,0,0-.9,2.57,10.11,10.11,0,0,0,1.69-.9c2.47-1.92,5-3.79,7.34-5.86,5.47-4.84,11.82-5.9,18.83-6.08,13.74-.36,25.68,5.71,38.13,10.22,15.37,5.57,29.94,13,44.6,20.2,5,2.45,8.06,6.19,7.52,12.31a2.79,2.79,0,0,0,.06.76,2.75,2.75,0,0,0,.33.57,4.07,4.07,0,0,0,1-.53c5.86-5.81,12.88-7,20.38-4.92,11.72,3.25,22.24,8.88,30.82,18a34.41,34.41,0,0,1,8.44,15.16,62.23,62.23,0,0,0,2.67,7l.64-.09c.27-1.74.53-3.49.86-5.58a28.31,28.31,0,0,1,4.65,2.27,67.27,67.27,0,0,1,7,5.85c4.56,4.43,6.8,9.49,4.88,16.31s-2.75,13.88-4.57,20.69c-5.92,22.16-19.48,36.34-41,42.42-30.76,8.66-60,4.44-87.59-11.41a66.8,66.8,0,0,0-22.15-7.8c-19.77-3.49-39.5-7.19-59.3-10.5-5.74-1-11.67-.68-17.48-1.31a120.09,120.09,0,0,1-16.82-2.61c-9-2.32-15-8.29-16.67-18a17.64,17.64,0,0,1,.51-6.95c.56-2.36,2.2-2.87,4.41-1.93C207.24,286,208.8,288.26,209.65,291.57Zm141.71,2.81a5.9,5.9,0,0,1-.84.17c-19.93.69-39.32-2.65-58.25-8.81-7.73-2.51-14.85-6.44-19.91-13.44a6.79,6.79,0,0,0-1.38-1.16l-.68.44c.88,2.17,1.72,4.36,2.63,6.52,1.63,3.84,1.26,5.72-1.78,8.49-1.16,1.07-2.37,2.09-3.56,3.13a3.12,3.12,0,0,0,2.31.32c9.79-2.66,19.48-1.79,29.1.94a258.35,258.35,0,0,0,42.31,8.11c5.68.63,11.53,1.43,16.86,3.42,9.67,3.63,19,8.24,28.49,12.37,3.6,1.57,6.76,3.6,8.68,7.31a3.41,3.41,0,0,0,.83.95l4.59-11.07a18.25,18.25,0,0,1-12-1.56c-8.05-3.76-16.08-7.63-24.3-10.94a23.19,23.19,0,0,1-11.92-9.87l-1.28-2.13C350.16,289,350.16,289,351.36,294.38Zm187.85-73.66c1.31-.86,2.15-1.51,3.06-2,2.11-1.11,2.73-2.52,1.55-4.87a22.16,22.16,0,0,1-1.23-4.61c-1.89-7.7-5-14.81-10.14-20.74a5,5,0,0,1-1-5.73c.9-2.21,1.67-4.47,2.5-6.7l-.48-.35L525,183C534.14,193.62,539.61,205.7,539.21,220.72Z"/><path class="cls-4" d="M471.26,274.93c-1.85-3.2-13.54-14.71-15.39-18.55s-9.84.64-11.08-5.12-16-20.48-17.23-22.4-19.08-7.67-22.16-8.31S382,215.43,381.49,214s-53-24.15-60.41-25.43-33.86-12.79-51.09,3.84-42.47-3.2-39.39,5.76c3,8.74,7.76,12,13,20.85.89.89,1.85,1.77,2.89,2.63a21,21,0,0,1,6.24,8c2.2,1.86,3.37,2.74,1.89,3a4.22,4.22,0,0,0-.93.34c1.14,7-3,13.13-7.86,15-3.57,1.35-27,6.38-21.47,7.34,1.59.27-7.33-1.43-11.23,9.52-3.08,8.63,4.25,14.55,3,15.51-6.14,4.79-12.26,3.34-17.46-.07a26.86,26.86,0,0,1-1.27,5.22c-.39,4.11-.71,8.12-1,10.89a24.17,24.17,0,0,0,4.32,9.1c1.89,1.34,3.82,2.6,4.61,4l110.79,22.4,28.93,14.65s7.39-4.41,8-2.49-4.31,8.31,2.47,8.95,19.08,2.56,29.54,3.2,57.24-12.15,61.55-16.63,16-24.32,19.08-33.91S473.11,278.13,471.26,274.93Z"/><path class="cls-5" d="M364.16,154s-10.46-23.46-15.39-30.07c-3.47-4.66-13.54-14.08-13.54-14.08s-20.31-29.43-22.77-32.63-9.85-11.52-11.69-15.35-14.16-8.64-37.55-2.24c-1.5.41-23.43,12.29-26.16,13.11C221.13,77.55,218,86.18,192.74,99.62c-4.56,2.43-.67,10.2-4.3,13.11-9.35,7.49-23.62,10.73-27.09,15.36-12.92,17.28-16.62,14.08-19.08,30.07s-13.54,17.92-16.41,20.48c-1.7,1.52,2.71,3.56,4.36,5,2.34-6.38,7.26-16.71,7.26-16.71,3.7-5.58,6.11-7.3,9.52-7.4s19.82,1.42,20.85,6.42S188.27,169,191,173.78s12,14.4,11.08,28.79c0,0,5.81-4.74,15.8-2.75,13.85,2.76,16.6,12.69,25.72,21.06-.44-.41-.88-.82-1.29-1.24-5.22-8.83-10-12.11-13-20.85-3.08-9,22.15,10.88,39.39-5.76s43.7-5.12,51.09-3.84c4.37.76,24.56,9,40.41,15.95.13-1.14-5.53-4.43-5.53-4.43-6.85-3.77-1.65-32.2,4.3-33.7C359,167,361.61,159.53,364.16,154Z"/><g id="ZdJeyv" class="cls-6"><path class="cls-7" d="M576.32,218.53c-3.09-2-4.66-1.08-4.89,2.76-.14,2.24-.6,4.47-.62,6.7,0,3.42.92,4.43,4.54,5.06C575,236,574.64,239,574.3,242a62.35,62.35,0,0,1-13.25,32.73c-7.9,9.82-18.15,13.46-30.31,12.35s-24.59-1.87-36.88-2.76c-3.25-.23-6.52-.32-9.77-.57s-4.58.36-5.77,3.81c-2.44,7-4.75,14.15-7.1,21.23-3.07,9.24-6.35,18.36-12.12,26.27-9.33,12.78-22,19.86-36.76,23.33a118.28,118.28,0,0,1-41.42,1.83c-5.21-.63-10.23-3.14-15.29-4.91-3.07-1.07-6.07-2.35-9.34-3.64-.68,4.61-3.43,6.71-7.4,7.45a2.19,2.19,0,0,0-1.2.71c-2.2,2.66-5.14,2.67-8.14,2.5s-6-.38-9.05-.41c-10.24-.09-20.18-2.41-30.09-4.64-14.68-3.29-29.44-4-44.41-3.35-14.19.65-27.95,3.88-41.85,6.28-8.1,1.4-16.16,3.05-24.27,4.41-5.2.87-10.13-2-10.27-8a8,8,0,0,0-2.52-5.74c-3.45-3.4-4.44-7.87-3.92-12.67a5.46,5.46,0,0,1,8.25-4.27c.67.39,1.28.88,2.17,1.5,1-2.55,2-4.95,3.15-7.93-2,1-4.22,0-5.36,2.38-.13.26-.47.63-.68.61-2.82-.31-4.74,2.27-7.23,2.53a12.81,12.81,0,0,1-6-1.29c-.74-.32-.95-2-1.34-2.91-4.87-.59-10-1-15.1-1.9a48.37,48.37,0,0,1-8.64-2.8c-8.63-3.31-10.34-9-5-16.87-6.69-5.11-13.26-10.45-17.53-18.06-1.54-2.73-2.41-5.87-3.65-9,4.14-.11,4.78-1.1,3.61-4.9-.21-.68,0-1.52-.33-2.12-.58-1.14-1.17-2.7-2.13-3.1a2.26,2.26,0,0,1-1.59-2.93c.57-3,1.21-6,1.83-8.95.15-.7.7-1.7.43-2.05-1.78-2.35-.5-5.2-1.3-7.64-.92-2.82.15-4.81,2.08-6.58.28-.26.51-.58.68-.76l-6.68-8.14v-2.91c.51-3.57,1-7.14,1.55-10.7a28.11,28.11,0,0,1,1.38-5.62c.11.57.22,1.13.37,1.88.27-.26.47-.36.55-.53,2.5-5.45,5-10.92,7.5-16.34.38-.79,1.22-1.92,1.84-1.91,2.36,0,2.09-1.49,2.45-3.15A20.13,20.13,0,0,1,131,188c.45-.75,1.7-1,3-1.67.36-2.08.6-4.75,1.29-7.29,1.16-4.25,1.95-8.83,4.13-12.48,1.8-3,5.35-4.94,8.17-7.29.29-.25.91-.16,1.35-.11q5.67.75,11.34,1.54c.08-.26.17-.51.26-.77-.94-.37-1.89-.74-2.82-1.13a53.56,53.56,0,0,1-6.6-2.8c-1.68-1-2.62-2.73-2.17-5.29,5.22,1.67,10.18.65,14.78-1.87.32.26.52.34.55.45,1.21,6.38,6.32,10.18,13.66,9.41a56.47,56.47,0,0,1,5.82-.12,3.23,3.23,0,0,0,3.47-2.54c1.27-4,2.7-7.9,4-11.86,2.68-7.87,5.86-15.41,11.46-21.67,2.8-3.12,5.1-6.72,7.59-10.12A56.91,56.91,0,0,1,224,99.29a4.08,4.08,0,0,1,3.17-.42,84.26,84.26,0,0,0,53.38-.12c1.91-.62,4-.74,5.89-1.27.73-.2,1.31-.92,2-1.36L294.62,92c2.84,15.55,9.38,29.05,17.73,41.89a4.16,4.16,0,0,1-5.31-.36,12.73,12.73,0,0,1-3.7-5.65c-1-2.78-3-5.18-4.66-7.65-1.3-1.89-2.81-3.62-4.24-5.42-.29-.36-.64-1-.94-1-3.84.14-6.77-3.53-11-2.36-3.71,1-7.73.7-11.52,1.5a78.44,78.44,0,0,1-34.16-.82,26.75,26.75,0,0,0-13,.5c-3.73.94-5.53,3.28-7.68,5.7-9.18,10.33-14.44,22.83-18.4,36.05-.89,3-1.64,6-2.53,9-.8,2.7-4.6,5.2-7.38,5-2-.13-4-.07-6-.26-4-.39-8-.89-12-1.35.14.64.44,1.7.59,2.78.33,2.35-1.31,3.8-3.42,2.86a7.34,7.34,0,0,1-2.84-2.35c-4.44-6.27-9.9-6.74-17.06-4.16a5.63,5.63,0,0,0-2.83,2.35c-1.53,2.77-3.22,5.6-4,8.64a113.83,113.83,0,0,0-2.35,14.29c-.34,2.81,2,4.47,4.68,3.63,4.54-1.44,6.39-.67,8.93,3.38a6.81,6.81,0,0,0,2.56,2.26c7.61,4,15.62,3.52,23.69,2.1a107.64,107.64,0,0,0,25.4-7.83,34.41,34.41,0,0,0,18.05-18.35c1.68-3.89,3.26-7.82,5.27-11.67-.25,3.22-.36,6.46-.78,9.66a26.25,26.25,0,0,0,3.27,17c7.74,13.31,18.72,23,32.06,29.75,10.71,5.47,22.16,8.23,34,9.68,7.23.89,14.43,2,21.65,3,2.46.33,4.94.54,7.42.73a19.8,19.8,0,0,1,11.73,4.77,149.69,149.69,0,0,0,20.69,14.82c8.75,5.22,18.25,8.18,27.93,10.47,13.62,3.23,26.49,8.1,37.95,16.58,2.71,2,5.6,3.73,8.42,5.6-3.32,1.77-6.49,3.53-9.74,5.14a2.52,2.52,0,0,1-1.9-.37c-15-8.49-26.6-17.73-42.7-23.51-9.29-3.34-22.48-7-31.59-10.88-3-1.29-5.85-2.27-8.83-3.63-2-.89-3.87-.37-5.84-1.25q-8.77-3.89-17.67-7.48c-11.82-4.8-24.22-6.83-36.77-8.12-3.71-.38-7.41-.75-11.11-1.21a11.87,11.87,0,0,1-8-4.65c-2.77-3.32-6.34-5.9-9.44-8.94-2.91-2.87-5.68-5.91-8.47-8.9-2.11-2.26-4.24-4.49-6.21-6.87-2.29-2.77-4.42-5.69-6.36-8.2-2.21.54-4.23,1.05-6.27,1.52a107.84,107.84,0,0,0-28.11,10.64l-.67-2.72c-2.1.69-3,2.32-3.62,4.28-.17.54-.26,1.25-.63,1.55a124.43,124.43,0,0,1-10.21,7.36l5.37-6.33c-4.56-1.33-8.48-2.94-12.55-3.55-6.12-.91-12.34-1.06-18.51-1.65a13.62,13.62,0,0,1-4.17-1.14c-4.61-2.11-9.17-4.34-13.75-6.55-1.52-.73-2.62-.46-3.42,1.19-3.8,7.8-6.68,15.8-5.74,24.8.25,2.45,1,4.33,3.28,5.37,4.31,2,8.54,4.23,13,5.94,2.27.87,3.12,2.6,2.71,4.38a52.71,52.71,0,0,0-1.29,19.17c0,.13-.13.28-.36.7-1.84,0-3.84.08-5.84,0-1.39-.08-2.34.38-2.52,1.83-.37,3-.78,6.06-.86,9.1a5.44,5.44,0,0,0,3.4,5.24c8.55,4.32,17.29,8.15,26.66,9.91,8.44,1.59,16.86.46,25.08-2a2.59,2.59,0,0,0,1.39-2,17.47,17.47,0,0,0-1.63-5.36c-2.46-4.56-5.14-9-7.9-13.73,2.33-1.09,4.19-2.05,6.12-2.79.45-.17,1.31.3,1.75.73C194.3,271.11,203,275.8,213.22,277c1.85.21,2.49.88,2.62,3,.4,6.45,4.07,10.65,9.53,13.23,6.07,2.87,12.56,4,19.13,4.95,4.44.62,8.82,1.72,13.26,2.43,9.11,1.46,18.3,2.52,27.36,4.26,11,2.1,21.91,4.46,32.74,7.21,9.85,2.51,19.54,5.72,29.32,8.56,9.61,2.79,19.24,5.5,28.86,8.27a34.16,34.16,0,0,1,5.31,1.68c21.8,10.44,43.2,9.88,63.79-3.17,6.81-4.31,11.22-11.29,14.62-18.77.72-1.59,1.21-2.4,3.21-1.82,4,1.16,7.5-1.5,9.06-5.92,2.89-8.19,1.28-15.73-2.73-22.94a32.65,32.65,0,0,0-5-7.27c-2.31-2.31-2.53-4.66-1.51-7.4.6-1.61.22-2.43-1.17-3.31-3.31-2.1-6.26-5.08-9.79-6.48-5.17-2.05-7.78-6.78-11.63-10.16-6.08-5.35-12.33-10.35-19.72-13.6a4.4,4.4,0,0,1-1.4-.83c-6.07-6.06-13.79-8.07-21.72-9.55a11.49,11.49,0,0,0-3.46-.43c-4.68.59-8.43-1.64-12.45-3.67-11.94-6-23.92-12-36.17-17.27-6.47-2.79-13.49-4.28-20.35-6-8.9-2.17-17.82-4.55-26.86-5.69-8-1-14.33-4.82-20.65-9.25-2.06-1.45-4.19-2.78-6.18-4.33a36.86,36.86,0,0,1-4.73-4.28c-2.78-3-4.19-6.47-2.62-10.8,1.26-3.46,2.08-7.1,3.23-10.61.22-.7,1.06-1.18,1.62-1.76A6.39,6.39,0,0,1,270.1,147c4,12.14,11.61,20.81,23.17,25.59a42.2,42.2,0,0,0,19.21,2.79,5.63,5.63,0,0,1,3.07.58,308.5,308.5,0,0,0,43.35,20.59c13.85,5.46,28.08,8.67,42.63,10.82a12,12,0,0,0,4.12-.47c5.94-1.29,10.15.39,13.48,5.56,2.22,3.45,5.64,4,9.15,4.07,2.16.06,4.33-.44,6.49-.42,4.42,0,7.3,2.34,8,6.86.95,6.3,4.09,11.19,8.1,15.75a8.91,8.91,0,0,0,6.7,3.24c2.09.1,4.16.45,6.25.67,4.9.52,8.48,3.88,11.68,7.05,4.06,4,8.75,5,13.79,5.24,9.54.49,19.08.91,28.63,1a112,112,0,0,0,27.43-3.39,7,7,0,0,0,3.35-2.36c10.54-12.68,18.66-27,25.48-42.08.09-.22.2-.43.56-1.16.22,1.66.39,2.84.53,4s.27,2.56.47,3.83c.14.94.4,1.85.61,2.78ZM247.08,316.64c.48.61.51.71.57.73,12.78,2.92,25.56,5.85,38.36,8.7a7.82,7.82,0,0,0,2.84-.32c1.57-.27,3.17-1,4.69-.8,2.84.29,5.63,1.1,8.45,1.62,9.85,1.78,19.07,5.65,28.43,9.08,4.36,1.59,8.71,3.21,13.06,4.81l.18-.71C313.36,324.35,280.5,320.47,247.08,316.64Z"/><path class="cls-8" d="M418.82,160.76,406.12,157c.56-4.3,1.57-9.13,1.73-14,.3-8.78.1-17.57.09-26.36a9.43,9.43,0,0,0-.22-1.18c-.17-1.29-1.54-2.64.36-3.8,2.21-1.34,4.63-2.16,6.81-.77.94.59,1.52,2.88,1.27,4.2-1.52,8,.45,15.54,2.92,23a13.32,13.32,0,0,0,2,3.49c7.1,9.76,16.79,15.46,27.93,18.54a256.39,256.39,0,0,0,27.64,6.47c4.74.75,9.81-.7,14.72-1.16a10.31,10.31,0,0,1,1.59-.3c1.58.09,2.06,1.25,1.17,2.64-1.38,2.13-3.08,4.14-4,6.48-2.88,7.22-2.81,14.33,2.06,20.76a14.23,14.23,0,0,0,11,5.95,59.06,59.06,0,0,1,7.43.4,15.5,15.5,0,0,1,5.53,2.2,3.75,3.75,0,0,1,1.18,5.14,101.33,101.33,0,0,1-5.14,9.18,15.28,15.28,0,0,1-4.2,4c-1.77,1.18-3,.48-3.77-1.55-.17-.47-.42-1.11-.79-1.28-4.92-2.18-9.21-5.92-14.84-6.39a4.62,4.62,0,0,1-2.53-1.58,67.33,67.33,0,0,1-5.11-6c-2-2.72-3.69-5.28-2.13-9.35s.37-8.7-2.18-12.4a26.48,26.48,0,0,0-6-6.67c-2-1.41-4.79-1.54-7.16-2.42-4.17-1.53-8.29-3.19-12.43-4.81-.5-.2-.92-.62-1.42-.8-9.17-3.24-18.34-6.49-27.53-9.67C420.71,158.57,419,158,418.82,160.76Z"/><path class="cls-8" d="M271.45,288c3.15-3.67,3.69-7.44,2-11.39-1.53-3.48-3.38-6.81-5.21-10.45a61.28,61.28,0,0,1,5.95,2.44C286.07,275,298.82,278.44,312,281a154.82,154.82,0,0,0,31.65,3.29,13.78,13.78,0,0,0,5.08-1.24c2.77-1.17,3.84-1.22,5.67,1.17,5.89,7.68,13.54,12.39,22.21,16.15,7.44,3.22,15.19,5,22.77,7.56,2.37.8,4.36,1.88,4.74,4.68.41,3.09-.4,5.75-3,7.64-1.07.79-2.12,1.63-3.18,2.45-1.75,1.37-3.88.69-5-1.26a49.14,49.14,0,0,0-4.34-6.45c-.59-.74-1.89-.86-2.84-1.31-3.59-1.72-7.21-3.4-10.75-5.22-4.8-2.46-9.5-4.91-15-5.64-3.46-.45-6.77-2.23-10.13-3.47-7-2.6-14.41-2.91-21.73-3.72-8.08-.89-16.15-1.6-23.83-5-4.16-1.84-8.78-2.58-13.21-3.75a3,3,0,0,0-2,.08c-2.12,1.22-4.14.9-6.25,0a4.32,4.32,0,0,0-3.85.1C276.88,288,274.28,287.68,271.45,288Z"/><path class="cls-8" d="M380.83,92.63l3,1.18c-2.37-3.28-4.64-6.08-6.54-9.13-3.47-5.51-7.48-10.74-9.1-17.32-.19-.78-.67-1.66-.47-2.32a11,11,0,0,1,1.63-2.64c.54.56,1.29,1,1.6,1.7,5.68,12.51,12.64,24.13,22.83,33.22,4.44,4,10,4.83,15.8,3.65a22.2,22.2,0,0,0,11.7-6l.56.49c-2.39,3.88-4.57,7.94-7.25,11.59-2.28,3.12-4.77,3.32-8.31,2-2.24-.85-4.67-1.16-6.93-2-3.69-1.31-7.33-2.78-11-4.27a4.43,4.43,0,0,1-1.52-1.47c-1.73-2.28-2.51-5.34-5.26-6.81C381.26,94.29,381.2,93.54,380.83,92.63Z"/><path class="cls-8" d="M453.87,126.3c1.76,0,3.38-.1,5,0,3.7.28,7.4.63,11.09,1,7.66.83,12.43-6.48,12.8-12.18a10.15,10.15,0,0,1,.4-3.1c.39-1,1.18-2.42,1.87-2.46,1.65-.1,2.09,1.51,2,2.94-.17,2.16-.15,4.51-1,6.41-1.57,3.55-3,7.68-5.79,10s-7.12,3.31-10.92,4.17c-2.61.59-5.51.61-7.87-1.76-.81-.82-2.48-1-3.75-1C455.11,130.34,454,129,453.87,126.3Z"/><path class="cls-8" d="M398.25,178.31c-2.17-1.85-2.08-3.63.11-6.83C400.38,173.83,397.66,175.88,398.25,178.31Z"/></g><g id="RSgvg2"><path class="cls-3" d="M400.5,50.61c1.41-.15,2.49-.36,3.58-.36A105.17,105.17,0,0,1,437,55.52,39.71,39.71,0,0,1,455.74,69c1.31,1.66,1.88,4,2.57,6.11.43,1.31-.33,2.07-1.69,2A13.17,13.17,0,0,1,454,77a31.85,31.85,0,0,0-14.24.33,14.23,14.23,0,0,1-13.38-3.45c-8.21-7.43-16.57-14.67-24.86-22A9.79,9.79,0,0,1,400.5,50.61Z"/><path class="cls-9" d="M351.36,294.38c-1.2-5.4-1.2-5.4-.14-6.81l1.28,2.13a23.19,23.19,0,0,0,11.92,9.87c8.22,3.31,16.25,7.18,24.3,10.94a18.25,18.25,0,0,0,12,1.56l-4.59,11.07a3.41,3.41,0,0,1-.83-.95c-1.92-3.71-5.08-5.74-8.68-7.31-9.5-4.13-18.82-8.74-28.49-12.37-5.33-2-11.18-2.79-16.86-3.42A258.35,258.35,0,0,1,299,291c-9.62-2.73-19.31-3.6-29.1-.94a3.12,3.12,0,0,1-2.31-.32c1.19-1,2.4-2.06,3.56-3.13,3-2.77,3.41-4.65,1.78-8.49-.91-2.16-1.75-4.35-2.63-6.52l.68-.44a6.79,6.79,0,0,1,1.38,1.16c5.06,7,12.18,10.93,19.91,13.44,18.93,6.16,38.32,9.5,58.25,8.81A5.9,5.9,0,0,0,351.36,294.38Z"/><path class="cls-8" d="M539.21,220.72c.4-15-5.07-27.1-14.22-37.77l8.46-7.23.48.35c-.83,2.23-1.6,4.49-2.5,6.7a5,5,0,0,0,1,5.73c5.19,5.93,8.25,13,10.14,20.74a22.16,22.16,0,0,0,1.23,4.61c1.18,2.35.56,3.76-1.55,4.87C541.36,219.21,540.52,219.86,539.21,220.72Z"/></g><path class="cls-10" d="M291.12,64l-.22-.07-.34-.21a2.11,2.11,0,0,0-3,0,2.32,2.32,0,0,0,0,3.17,4.92,4.92,0,0,0,3.16,1.51,2.24,2.24,0,0,0,.41-4.42Z"/><path class="cls-11" d="M138.71,166.24c3.7-5.58,6.11-7.3,9.53-7.4s19.81,1.42,20.84,6.42,20.42,3.08,23.19,7.88,12,14.4,11.08,28.79c0,0,5.81-4.74,15.8-2.75C233.78,202.1,236,213,246.47,221.63c12.65,10.43,6.8,23.55-.66,26.37-3.57,1.35-27.39,6.62-21.85,7.58,1.59.27-7.18-1.67-11.08,9.28-3.08,8.63,4.48,14.55,3.25,15.51-15.49,12.08-30.85-15.55-31.7-14.07s10.58,5.28,13.24,9.59c4.74,7.7-9.23,15,4.92,32,7.77,9.31,27.8,8.93,23,7.68-11.08-2.88-25.92,5.38-28.69,9.22s-23,14.74-24.43,13.12-21.73-5.45-24.5-6.41S134.37,311,134.37,311,124,290.23,122.1,287.35s-2.77-25-2.77-25l-3.27-14.16-3.93-18.39s4.43-25,7.2-27.91,11.76-12.18,11-14.25S138.71,166.24,138.71,166.24Z"/><path class="cls-12" d="M403.56,295.5a29.55,29.55,0,0,0-12.26-14.77c-6.38-3.9-13.85-6-20.66-9C362.21,268.1,354.09,264,345.4,261c-6.52-2.24-14.16-6.11-20.33-1.13-2.82,2.27,1.13,6.31,3.92,4.07,2.34-1.89,5.95-.41,8.42.41,3.26,1.08,6.51,2.18,9.74,3.33,7.19,2.55,14,6.08,21,9.14,11,4.8,25,7.58,30.1,20.19C399.58,300.39,405,298.92,403.56,295.5Z"/><path class="cls-12" d="M258.2,265.65c-8.1-9.49-24.48-9.65-35.31-6.29-3.42,1.06-2,6.62,1.47,5.55,9-2.78,23.14-3.13,29.93,4.81C256.66,272.5,260.57,268.41,258.2,265.65Z"/><path class="cls-13" d="M238.26,217.22c-4-3.92-8.42-7.91-13.62-10-5.72-2.34-11.61-1.85-17.35.13-3.37,1.16-1.92,6.73,1.48,5.55,4.31-1.49,8.47-2.11,12.88-.72s7.89,4.72,11.21,7.75c4.16,3.8,14.45,13,9.53,19.51-2.19,2.89,1.7,7,3.91,4.07C253.42,234.08,245,223.78,238.26,217.22Z"/><path class="cls-13" d="M175.54,225.07c-4-9-14-8-22-9.65-3.49-.71-5,4.84-1.48,5.56,6.16,1.26,15.52,0,18.66,7C172.26,231.34,177,228.41,175.54,225.07Z"/><path class="cls-13" d="M192.34,181.4c-7.33-7.24-17-7.32-25.51-2.16-3.08,1.88-.29,6.86,2.79,5,6.31-3.84,13.27-4.2,18.81,1.25C191,188,194.94,184,192.34,181.4Z"/><path class="cls-10" d="M241.39,118.81c-13.41-4.07-26.74,3.15-29.88,17.58-.78,3.61,4.56,5.15,5.35,1.53,2.48-11.43,12.43-16.78,23-13.56C243.35,125.4,244.81,119.85,241.39,118.81Z"/><path class="cls-10" d="M264.37,121.58A20.3,20.3,0,0,0,249.1,124c-3.13,1.79-.33,6.77,2.8,5a14.55,14.55,0,0,1,11-1.85C266.37,128,267.84,122.44,264.37,121.58Z"/><path class="cls-10" d="M241.16,145.69a2.83,2.83,0,0,0-2.77-2.88,4.39,4.39,0,0,0-3,1.27,3,3,0,0,0,0,4.07,2.7,2.7,0,0,0,3.48.35A2.85,2.85,0,0,0,241.16,145.69Z"/><path class="cls-10" d="M266,176.22a2.79,2.79,0,0,0-3.79-1,3.31,3.31,0,0,0-1.43,1.34,2.29,2.29,0,0,0-.87,1.45c0,.16,0,.32-.05.49a1.84,1.84,0,0,0,0,.33,6.31,6.31,0,0,0,1.82,5.39,2.75,2.75,0,0,0,4.35-.58A7.44,7.44,0,0,0,266,176.22Z"/><path class="cls-12" d="M442.47,259.4a53.08,53.08,0,0,1-4-7.59,31.24,31.24,0,0,0-5.89-7.92c-4.5-4.61-10.22-7.7-15.82-10.59-9.54-4.93-21.66-9.43-31-1.78-2.81,2.3,1.14,6.34,3.92,4.07,7.6-6.23,19.26,0,26.52,3.85,4.8,2.57,9.35,5.33,13.21,9.29s5.14,9.17,8.23,13.58C439.77,265.28,444.58,262.41,442.47,259.4Z"/><path class="cls-12" d="M437.82,290.82c-5.19.15-9.45,3.42-11.63,8.25-1.5,3.35,3.28,6.27,4.79,2.91,1.33-3,3.53-5.3,6.84-5.4C441.38,296.48,441.39,290.72,437.82,290.82Z"/><path class="cls-10" d="M355.24,143.28c-1.89-4.81-5.63-11.79-11.35-13.82-2.46-.87-4.06,2.38-1.58,3.26,4.5,1.59,7.2,7.33,8.86,11,2.21,4.91,2.14,11.67-1.3,15.86-1.5,1.83,1.7,4.2,3.21,2.36C357.22,156.9,357.61,149.32,355.24,143.28Z"/><path class="cls-10" d="M280.66,62c-4.61-.38-9.52,1.86-12.83,5.11-2.61,2.55,1.32,6.62,3.91,4.07a11.86,11.86,0,0,1,8.92-3.42C284.22,68,284.2,62.26,280.66,62Z"/><path class="cls-12" d="M379.87,230.93c-2.28-3.27-4.21-6.79-6.72-9.88-3.1-3.83-7.63-5.88-11.81-8.13A285.24,285.24,0,0,0,330,198.44c-10.2-4-20.78-7.57-31.64-8.95-10.53-1.35-19.08,2.57-27.94,8-2.39,1.46-.22,5.34,2.18,3.86a66.1,66.1,0,0,1,11.65-6.13c4.6-1.68,9.31-1.77,14.11-1.26,10.4,1.1,20.76,5,30.49,8.79a272,272,0,0,1,28.23,12.93c4,2.11,8.57,4.06,11.9,7.31,2.93,2.86,4.81,6.83,7.15,10.19C377.76,235.51,381.5,233.28,379.87,230.93Z"/><path class="cls-12" d="M320.48,259.09c-6.25-11.85-22-13-33.27-15.89-5.49-1.43-10.59-3.95-16.22-5-4.71-.86-10.86-.91-13.32,4.22-1.24,2.58,2.47,4.85,3.72,2.26,2-4.18,8.67-2.23,12-1.38,4.53,1.16,8.81,3.19,13.32,4.36,9.77,2.53,24.58,3.33,30,13.66C318.09,263.88,321.81,261.62,320.48,259.09Z"/><path class="cls-13" d="M139.21,213a14,14,0,0,0-5.7-5.28,2.15,2.15,0,0,0-2.95.8,2.29,2.29,0,0,0,.78,3.06,9.82,9.82,0,0,1,4.15,3.68,2.14,2.14,0,0,0,2.95.8A2.29,2.29,0,0,0,139.21,213Z"/><path class="cls-10" d="M316,143.78a2.17,2.17,0,0,0-1.46-1.85c-3.1-1.11-6.15-.62-9.19.46-1.45.51-2.84,1.22-4.24,1.86a2.83,2.83,0,0,0-.75.54l-.28.16a26.36,26.36,0,0,0-2.41-11.27c-1.18-2.62-4.89-.34-3.72,2.26a19,19,0,0,1,1.32,12.35,2.25,2.25,0,0,0-.08.71,15.13,15.13,0,0,0-1.55,2.27c-1.37,2.52,2.35,4.77,3.72,2.26a11.54,11.54,0,0,1,2.69-3.25c1.25.12,2-1,2.82-1.79a16.23,16.23,0,0,1,11.45-.65C316.81,148.63,318,145,316,143.78Z"/><path class="cls-10" d="M257.84,81.69a17.86,17.86,0,0,0-23.1,0c-2.17,1.73,0,5.62,2.18,3.86,6-4.79,12.75-4.79,18.75,0C257.87,87.31,260,83.42,257.84,81.69Z"/><path class="cls-10" d="M189.05,120.73c-9-1.2-18.45,3.64-24,10.89-1.71,2.24,1.32,5.43,3.05,3.17,4.94-6.46,12.92-10.65,20.94-9.58C191.8,125.58,191.77,121.09,189.05,120.73Z"/><path class="cls-12" d="M448.28,291.68l-.31,0-.72-.18c-.56-.16-1.12-.36-1.68-.56a2.17,2.17,0,0,0-2.65,1.57,2.28,2.28,0,0,0,1.51,2.75,12.91,12.91,0,0,0,3.85.93,2.24,2.24,0,0,0,0-4.47Z"/><path class="cls-10" d="M274.59,124.27a4.39,4.39,0,0,0-3.16-1.51,2.23,2.23,0,0,0-.11,4.46h0l.22.21a2.11,2.11,0,0,0,3,0A2.32,2.32,0,0,0,274.59,124.27Z"/><path class="cls-8" d="M248.1,223.1c.17.17.35.33.51.5C248.45,223.43,248.27,223.27,248.1,223.1Z"/><path class="cls-8" d="M246.47,221.63q-.72-.6-1.38-1.2Q245.75,221,246.47,221.63Z"/><path class="cls-8" d="M249.52,224.6a3.58,3.58,0,0,0-.26-.29A3.58,3.58,0,0,1,249.52,224.6Z"/><path class="cls-8" d="M247.59,222.61c-.36-.33-.73-.66-1.12-1C246.86,222,247.23,222.28,247.59,222.61Z"/><path class="cls-8" d="M250.34,225.6s-.09-.1-.13-.16S250.3,225.55,250.34,225.6Z"/><path class="cls-8" d="M251.07,226.61l0-.06Z"/><path class="cls-14" d="M499.17,227.25c-1.44-6.55-8.56-8.74-14.17-9.58-6.12-.91-13.67.05-16.75,6.54-1.57,3.32,3.21,6.24,4.79,2.91,2-4.31,7.2-4.39,11.16-3.8,3.28.49,8.75,1.47,9.63,5.46C494.62,232.4,500,230.86,499.17,227.25Z"/><path class="cls-14" d="M459.58,179c-6.48-2.25-12.83-4.78-19.26-7.18-6.1-2.28-12.29-4.87-18.56-6.58-5.57-1.52-11.66-1.58-16.06,2.76-2.59,2.56,1.33,6.63,3.92,4.08,3.52-3.48,9-1.87,13.08-.58,5.07,1.58,10,3.67,15.05,5.47,5.65,2,11.13,4.63,16.84,6.46,1.93.62,9.1,2.13,9,4.52-.19,3.72,5.35,3.7,5.54,0C469.38,182.59,463.54,180.34,459.58,179Z"/><path class="cls-14" d="M403.68,185.14c-7-1.73-13.87-3.78-20.93-5.12-3.49-.66-5,4.88-1.47,5.55,7.05,1.34,14,3.39,20.92,5.12C405.68,191.55,407.15,186,403.68,185.14Z"/><path class="cls-14" d="M474.88,105.2c-3.33-5.81-7.76-9.32-14.29-10.17-3.54-.46-3.49,5.3,0,5.76,4.47.58,7.28,3.44,9.51,7.32C471.93,111.29,476.72,108.4,474.88,105.2Z"/><path class="cls-14" d="M437.11,61.11a15.11,15.11,0,0,0-11.4-5.32c-3.57-.09-3.56,5.67,0,5.76a9.79,9.79,0,0,1,7.48,3.63C435.46,68.05,439.36,64,437.11,61.11Z"/><path class="cls-14" d="M396.51,117.79c-3.34-5.41-8.75-6.43-14.5-7a3,3,0,0,0-.81,0c-.84-3.73-1.49-7.51-2.59-11.19A34.16,34.16,0,0,0,371.46,87c-5.76-6.61-14.77-10.65-23.22-7.84-3.38,1.13-1.94,6.69,1.48,5.55,7.43-2.47,14.33,2,19,7.79,5.35,6.54,5.78,15.35,7.92,23.26a2.78,2.78,0,0,0,5,.77c.11,0,.21,0,.32.06,3.6.34,7.58.67,9.72,4.12C393.65,123.81,398.44,120.92,396.51,117.79Z"/><path class="cls-14" d="M387.66,57c-6.88-5.77-15.73-8.18-24.3-9.7-11-2-21.75,2-32.74,2.14-3.57,0-3.58,5.8,0,5.76,9.61-.13,18.95-3.19,28.59-2.65,8.07.44,18.18,3.19,24.54,8.52C386.5,63.33,390.45,59.28,387.66,57Z"/><path class="cls-14" d="M417,76.73c-3.38-6.09-8.42-11.45-15.63-11.35-3.57.06-3.57,5.81,0,5.76,5.18-.07,8.46,4.2,10.84,8.49C414,82.85,418.81,80,417,76.73Z"/><path class="cls-14" d="M512.67,174.55c-3-2-5.83,3-2.8,5,11.58,7.44,18.18,21.3,18.33,35.27,0,3.71,5.57,3.71,5.53,0C533.56,198.77,525.91,183.06,512.67,174.55Z"/><path class="cls-14" d="M490.2,147.16a60.27,60.27,0,0,0-18.78-9.29c-6.36-1.86-11-.75-16.22,3.32-2.2,1.71-.05,5.61,2.17,3.87a18.42,18.42,0,0,1,6-3.56c2.57-.76,5.47.27,7.93,1A54.15,54.15,0,0,1,488,151C490.3,152.71,492.44,148.82,490.2,147.16Z"/><path class="cls-14" d="M531.87,154.13c-3.85-3.39-7.09-8-12-9.94-6-2.35-11.78.09-16.7,3.83-2.22,1.68-.08,5.57,2.17,3.86,4-3,8.71-5.57,13.63-3.24,3.88,1.84,6.62,5.84,9.82,8.65C530.93,159.14,534,156,531.87,154.13Z"/><path class="cls-14" d="M529.59,130.1c-2.85-2.24-5.05-5.27-7.36-8.07a98.85,98.85,0,0,0-7.8-7.79,47.35,47.35,0,0,0-8.66-7c-3.74-2.23-7.68-4-11.26-6.54-2.31-1.62-4.47,2.26-2.18,3.87a111.64,111.64,0,0,0,10.32,6,45.69,45.69,0,0,1,9.5,7.62,94.14,94.14,0,0,1,7.66,7.81,50.67,50.67,0,0,0,7.61,8C529.64,135.71,531.78,131.82,529.59,130.1Z"/><path class="cls-14" d="M504.05,119.85c-3-.91-6.54-1.34-9.08,1-2.08,1.93,1,5.08,3,3.17,1.16-1.07,3.6-.24,4.88.15C505.57,125,506.71,120.66,504.05,119.85Z"/><path class="cls-14" d="M553.21,161.8c-2.16-1.75-5.23,1.39-3.05,3.17,3.73,3,3.13,8.94,3.48,13.35.22,2.86,4.53,2.88,4.3,0C557.51,172.72,557.94,165.65,553.21,161.8Z"/><path class="cls-14" d="M343.12,83.5a8.48,8.48,0,0,1-1.1,1,3.15,3.15,0,0,1-1.66.54,2.21,2.21,0,0,1-2.15-2.24,2.18,2.18,0,0,1,1.51-2.1c.12-.12.24-.22.35-.34a2.13,2.13,0,0,1,3.05,0A2.33,2.33,0,0,1,343.12,83.5Z"/><path class="cls-14" d="M454.63,94.19a3.84,3.84,0,0,0-2.76-1,2.24,2.24,0,0,0,0,4.48h.2a2.09,2.09,0,0,0,2.56-.35A2.33,2.33,0,0,0,454.63,94.19Z"/><path class="cls-14" d="M411.56,187.59h-.31a2.24,2.24,0,0,0,0,4.48h.31a2.24,2.24,0,0,0,0-4.48Z"/><path class="cls-9" d="M576.22,227.71c-.81,6.18-1.44,12.38-2.46,18.52a63.06,63.06,0,0,1-10.14,25C556,282.69,544.93,287.68,532,288.45a150.79,150.79,0,0,1-46.41-4.54c-4.33-1.1-5.76-.54-7.33,3.87-2.78,7.82-5.22,15.78-7.83,23.66-.77,2.31-1.64,4.59-2.49,6.87-9.17,24.68-27.28,37.19-51.72,41.24-16.74,2.78-33.39,1.44-50-.8-4.37-.59-7.63.1-10.84,3.65-7.11,7.86-16.27,12-26.48,13.23-7.12.85-12.18,4.14-15.95,10.48a419.33,419.33,0,0,0-28.2,57.78c-.41,1-.83,2-1.28,3-1.13,2.47-3,3.83-5.65,3.54-4.6-.5-9.21-1-13.76-1.82-3.68-.68-5.56-4.55-4.65-8.95,2-9.58,3.8-19.2,6.1-28.7,1.26-5.21.54-9.28-3.73-12.51a21.45,21.45,0,0,1-3.16-3.16,13,13,0,0,0-8.82-4.31c-8.71-1-17.41-2.12-26.11-3.19a3,3,0,0,1-.72-.15c-8.5-3.28-17.25-6-25.41-10-5.7-2.82-10.61-7.39-15.82-11.26a9.78,9.78,0,0,1-2.49-2.75,137.81,137.81,0,0,1-7.41-13.06,33,33,0,0,1-2.14-9.24c-.53-4.05-.35-4.05-4.2-4.53-7.35-.92-14.77-1.77-21.18-6.06a68.81,68.81,0,0,1-9-7.29c-3-2.87-4.34-6.78-5.28-10.9a12.44,12.44,0,0,0-2.81-5.67c-4.1-4.31-6.87-9.11-7.28-15.29a13.21,13.21,0,0,0-1.41-5.07c-5-9.63-5.14-19.71-2.8-30.05.1-.41.15-.84.27-1.24a15.21,15.21,0,0,0-.79-11.62c-3.1-6.49-2.52-13.58-1.66-20.63a96.7,96.7,0,0,1,9-31.1c2.11-4.3,3.17-9.18,4.54-13.85,2.35-8,6-15.11,11.81-21a14.33,14.33,0,0,0,4-7.95,10.92,10.92,0,0,1,2.18-5c5.44-6.5,10.95-12.93,16.66-19.18a37.18,37.18,0,0,1,19.95-11.47c2.49-.53,3.64-1.8,4.12-4.48a19.56,19.56,0,0,1,7.83-12.45c10.18-7.4,20.41-14.76,31-21.46,4.18-2.63,9.42-3.43,14.15-5.15,1.66-.6,3.52-1.09,4.79-2.22,9.91-8.79,21.56-13.28,34.21-15.36a84.59,84.59,0,0,1,27.41-.49c2.25.36,4.86-.93,7.17-1.83,8.2-3.17,16.21-6.94,24.55-9.65,8.95-2.91,18.28-2.81,27.51-1.07,2.05.39,3.94,1.62,6,2.09A74.84,74.84,0,0,0,379,42.73c2.48.27,5,.37,7.49.4,3.72,0,7.47.19,11.18-.11,16.17-1.32,31.48,2.31,46.39,8.43,4.34,4.22,9.75,4.83,15.35,5.83,4.21.76,8.31,3.38,12,5.9q23.22,15.87,46.08,32.29c4,2.9,7.34,6.87,10.8,10.54,1.15,1.22,8.53,12.79,10.31,15.4,5.32,7.78,6.9,13.23,12.19,21,2,2.95,4.13,5.83,6.4,8.57a42.4,42.4,0,0,1,8.27,17.3,13,13,0,0,0,.84,2.89c5.36,10.51,7,22,8.53,33.58.56,4.25,1,8.53,1.44,12.8ZM209.65,291.57c-.85-3.31-2.41-5.57-5.15-6.75-2.21-.94-3.85-.43-4.41,1.93a17.64,17.64,0,0,0-.51,6.95c1.69,9.75,7.64,15.72,16.67,18a120.09,120.09,0,0,0,16.82,2.61c5.81.63,11.74.35,17.48,1.31,19.8,3.31,39.53,7,59.3,10.5A66.8,66.8,0,0,1,332,334c27.63,15.85,56.83,20.07,87.59,11.41,21.55-6.08,35.11-20.26,41-42.42,1.82-6.81,2.65-13.91,4.57-20.69s-.32-11.88-4.88-16.31a67.27,67.27,0,0,0-7-5.85,28.31,28.31,0,0,0-4.65-2.27c-.33,2.09-.59,3.84-.86,5.58l-.64.09a62.23,62.23,0,0,1-2.67-7A34.41,34.41,0,0,0,436,241.36c-8.58-9.15-19.1-14.78-30.82-18-7.5-2.08-14.52-.89-20.38,4.92a4.07,4.07,0,0,1-1,.53,2.75,2.75,0,0,1-.33-.57,2.79,2.79,0,0,1-.06-.76c.54-6.12-2.54-9.86-7.52-12.31-14.66-7.22-29.23-14.63-44.6-20.2-12.45-4.51-24.39-10.58-38.13-10.22-7,.18-13.36,1.24-18.83,6.08-2.35,2.07-4.84,4.2-7.31,6.13-.5.38-2.13,1.65-2.77,1.22.06-1.17,1.52-2.47,1.95-3.16,2.45-3.88,4.82-7.82,7.42-11.6,1.57-2.29,1.59-4.08-.21-6.3-2.83-3.48-5.28-7.29-8-10.84a8.72,8.72,0,0,1-1.78-8.43c1.47-5,2.66-10.11,4-15.18l.63.1c0,1.48,0,2.95,0,4.43.07,3.28-.18,6.61.29,9.83,1.78,12.49,10.21,21.22,22.16,23.12,3.45.55,6.95.73,10.42,1.1,5.78.61,11.52,1.11,16.24-4.47-.16,4.3,2.1,6.24,4.94,7.69,5.16,2.65,10.24,5.48,15.51,7.86q18.86,8.49,37.89,16.59a111.4,111.4,0,0,0,16,5.82c6.89,1.75,14,2.66,21,3.95.4-2,.71-3.5,1.13-5.58.83,1.65,1.37,2.76,1.94,3.86,3.21,6.18,6.47,7.91,13.14,6.78,3.11-.53,6.18-1.29,9.87-2.07-1.17,1-1.84,1.62-2.51,2.23-3.21,2.9-3.55,4.76-1.34,8.56,1.72,3,3.6,5.82,5.38,8.75a16.86,16.86,0,0,0,12.46,8.37c3.5.52,7,.9,11.21,1.43l-4.6,2.07c4.62,4.77,9.2,9.52,13.82,14.24a7.33,7.33,0,0,0,6.69,2.21c3.06-.46,6.14-.75,9.35-1.12-1.58,3.19-1.62,4.79.84,6.95a15.8,15.8,0,0,0,6.51,3.48c4,1,8.19,1.21,12.3,1.8,4.92.7,8.55-1.09,11-5.55.59-1.06,1.14-2.15,1.7-3.22l.53.14c-.21,2.17-.42,4.34-.63,6.43,12.9,4.24,30.59-4.57,36-18.1A169.14,169.14,0,0,0,564,240.91a83,83,0,0,0,2-32.13c-.88-6.77-2.15-13.49-3-20.27-1.23-10.3-3.34-20.3-8.47-29.34a18.37,18.37,0,0,0-4.17-4.79c-1.57-1.35-3.32-.73-3.71,1.31a35.06,35.06,0,0,0-.44,7c0,2.34.36,4.69.56,7l-1.11.38a43.63,43.63,0,0,1-3.42-5.28c-3.85-8.23-10-14.53-16.19-20.74a15,15,0,0,0-14.86-4.13,31.88,31.88,0,0,0-12.09,5.77c-2.78,2.09-4.08,2-6.79-.2a56.75,56.75,0,0,0-28.58-11.94,8.8,8.8,0,0,0-8.53,3.2c-1.1,1.32-2.23,2.6-3.35,3.9l-.61-.36a18.56,18.56,0,0,0-1.78-15.66,14.72,14.72,0,0,1,2.12,1c3.69,2.74,7.92,3.78,12.31,4.41,3.3.46,6.64.81,9.88,1.57,2.83.67,4.56-.54,5.83-2.86,1.69-3.07,3.29-6.21,4.91-9.33a9.48,9.48,0,0,0,.18-8.54c-3.06-6.83-7.72-12.1-14.47-15.07-2.83-1.25-5.85-2-8.78-3-.78-.27-1.53-.62-2.48-1,.45-.6.64-1.07.84-1.08,3,0,6,0,9,0a14.9,14.9,0,0,0-9.81-8.84,46.65,46.65,0,0,0-9.87-1.27c-9.21-.41-16.42,3.54-21.4,11.56-4.45,7.16-8.74,14.44-12.95,21.76a12.83,12.83,0,0,0-2,5.62c-.32,11-.39,22.1-.51,33.15a4.06,4.06,0,0,0,3.21,4.22c2,.59,4.09,1.08,6.12,1.67q23.6,6.79,47.18,13.62a21.83,21.83,0,0,0,16.6-1.41,17.15,17.15,0,0,1,2.48-.82l.27.62-3.89,3.3a13.2,13.2,0,0,0-4.93,9A46.25,46.25,0,0,0,483.12,207a4.71,4.71,0,0,0,2.61,2.36c5.39,1.56,10.84,2.9,16.28,4.28a6.94,6.94,0,0,0,7.93-3,10.83,10.83,0,0,1,2-1.69l.67.63c-1.22,7.6-6.21,12.89-11,18.41a33,33,0,0,1-.26-4.51c-.16-4.38-1.42-6.12-5.47-7.18q-5.65-1.47-11.39-2.68a15.83,15.83,0,0,0-12.4,2.22c-2.16,1.41-4.48,2.53-6.74,3.79a32.85,32.85,0,0,1,5.13-6.81c5.17-5,6.54-11.3,5.76-18.26a67,67,0,0,0-1.6-8.17,12.82,12.82,0,0,0-8.42-9.38c-17.75-6.93-36.12-11.64-54.41-16.6-3.05-.83-4.93.06-6.6,2.9s-3.36,6-5,9c-1.82,3.36-1.54,4.86,1.29,7.48,1.22,1.13,2.41,2.29,4.1,3.89l-24.05-7c1.72-.17,4-.38,6.35-.64,3.77-.43,6.79-2,8.68-5.67,1.16-2.22,2.53-4.33,3.85-6.45,8.78-14.12,9-29.6,6.57-45.45a8.29,8.29,0,0,0-6.18-7.13q-7.41-2-14.91-3.69c-1.62-.36-2.46-1.06-2.58-2.76-.52-7.76-4.21-14.13-8.56-20.09a19.59,19.59,0,0,0-17.85-8.47c-2.75.17-5.51.41-8.24.79-2.21.3-3.43-.38-3.48-2.92,5.56-.53,11-1.13,16.53-1.54A5.4,5.4,0,0,0,367,68c.5-2.25.7-4.57,1-6.86a3.4,3.4,0,0,1,.92,2.41c-.17,5,.62,9.76,3.45,14,5.27,7.81,10.45,15.69,15.88,23.38a11,11,0,0,0,4.78,3.59c4.17,1.64,8.5,2.84,12.76,4.23,3.79,1.23,7.09.28,9.28-3.08,2.95-4.52,5.64-9.25,8.23-14a12,12,0,0,0,.82-9.35c-3.76-12.72-12.88-19.59-24.33-23.82-1.27-.47-2.77-.28-4.58-.43L398,54.88c-3.82-1.83-7.2-4.42-10.88-5-7.51-1.19-14.71-3.68-22.13-5-12.39-2.26-24.64-.34-36.54,3.57a29,29,0,0,0-16.3,13.35c-2.45,4.21-1.52,8.08,2.36,10.79,3.52-2.12,6.52-5.36,10.83-6.17a37.75,37.75,0,0,1-4,5.67A9.7,9.7,0,0,0,320,83.78c4.42,8.08,9.08,16,16.42,21.76,4.22,3.3,8.52,6.48,12.79,9.71,2.51,1.9,4.64,4.65,8.36,3.49-2.19,14.65-1.2,17.82,9.86,31.89a33.23,33.23,0,0,0-7.29,15.18c-.18.83-1,1.51-1.56,2.26l-.63-.43a13.09,13.09,0,0,1,.55-2.09,18.6,18.6,0,0,0,1.3-10.37,54,54,0,0,0-.67-6c-2.28-8.76-4.15-17.86-13.74-21.91,1.64-2.18,1.77-4.63-.07-6.61a54.3,54.3,0,0,0-8.41-7.87c-2.62-1.82-5-3.63-6.66-6.46-8.65-14.87-19.42-28.1-30-41.48a16.4,16.4,0,0,0-11.89-6.64c-12.48-1-23.48,3.28-33.51,10.68a10.46,10.46,0,0,0-1.52,1.78l14.93,9.68-4.56,2.23c-3-2.16-5.31-4.43-8-5.62a21.62,21.62,0,0,0-19.37.44c-8.6,4.55-17.13,9.3-25.47,14.36a144.8,144.8,0,0,0-13.74,10c-2.73,2.15-3.13,4.56-1.8,7.12l9.06-1.73c.13.34.27.68.4,1-5.52,2.68-9.54,7.08-12.87,12.22-3.35-3.53-3.35-3.52-7.87-2.22-15.34,4.42-25.75,15.29-34.09,28.61-3.16,5.06-.43,9.32,5.42,9.46a4.93,4.93,0,0,0,5-3.12c1.5-3,3.36-5.75,5.07-8.62l.67.42c-.63,1.32-1.3,2.61-1.88,3.95-2.94,6.82-1,12.3,5.55,15.42,5.42,2.58,11,2.28,16.72,1,2.08-.46,3-1.63,3.48-3.87a93.29,93.29,0,0,1,15.28-36.1,71.73,71.73,0,0,1,16-16.55l-3.07-5.86c4.18,1.52,7.81,3.35,11.65,4.16,16,3.35,32.15,4.61,48.46,2.59,6.76-.84,8.74-2.76,9.23-9.67l2.83-.5c-.74,3.87,1.44,6,3.26,8.58,4.57,6.35,9,12.81,13.24,19.39a12.57,12.57,0,0,0,6.59,5.63c2.1.72,4.09,1.77,6.65,2.9-4,0-7.38-.58-10.5.16s-5.72,2.82-8.39,4.22c0-1,0-2.56,0-4.07a34.93,34.93,0,0,0-3.06-15c-2.23-4.94-5.95-8-11.17-8.11-12.26-.19-24.55-.15-36,5.35-.09,0-.27-.11-.53-.22l1-3.56c-2.44-.4-4.71-.82-7-1.14-4.24-.58-8.61-.64-12.71-1.79-2.75-.77-4.63-.55-6.86,1.15-11.57,8.83-19.3,20.62-24.54,34.29-3.56,9.3-6.22,18.84-5.39,29,.11,1.3.15,2.6.22,3.9a16.78,16.78,0,0,1-3.08-3.33,10.41,10.41,0,0,0-6.64-4.34c-9-1.39-17.2-.17-23.82,7a6.72,6.72,0,0,1-.73.56l-.55-.37c1.53-2.81,3-5.67,4.61-8.41a3.65,3.65,0,0,0-.27-4.58c-7.2-10-21.28-5.55-24.79,2.53a115.24,115.24,0,0,0-5.2,15.75,17,17,0,0,0-.11,7c.91,5.51,5.91,10.71,10.36,11.13l2.33-6.67a25.61,25.61,0,0,1,1.66,7,4.1,4.1,0,0,0,3.87,4.08c8.36,1.24,16.7,2.61,25.07,3.78a7.23,7.23,0,0,0,4-.74c10.58-5.16,21.11-10.46,31.68-15.65A13.55,13.55,0,0,0,221,185.6c1.61-6.37,3.37-12.69,5.12-19a22.77,22.77,0,0,1,1.18-2.8,4.17,4.17,0,0,1,.57,2.56c-.2,3.71-.47,7.42-.63,11.13-.36,7.88,1.14,15.13,5.67,21.78,6.37,9.38,13.39,18.09,22.08,25.18a23.84,23.84,0,0,0,8.46,4.73c12.32,3.3,24.76,6.16,37.15,9.17,9.64,2.35,19.21,5.23,29.32,3.42.78-.14,1.85,1,2.68,1.72,1.86,1.56,3.63,3.24,5.5,4.79.88.73,2,1.13,2.83,1.93a43,43,0,0,0,24.26,12,56.24,56.24,0,0,1,19.42,6.9c8.44,4.86,17.16,9.21,25.6,14.09,7,4,14.12,5.24,21.82,3a20.92,20.92,0,0,1,3.65-.41c.06.27.12.55.19.82-.67.33-1.33.7-2,1-2.64,1.08-5.29,2.13-7.94,3.19-4.34,1.75-6.57,5-6.66,9.89,0,1.62,0,3.25,0,4.88l-.72.07c-.42-1.13-.88-2.26-1.26-3.4-2.95-8.82-8.15-15.73-16.14-20.13-5.22-2.88-10.42-6-15.93-8.11-17.47-6.79-35.09-13.16-52.65-19.7a4.18,4.18,0,0,0-4.72,1c-1.54,1.45-3.2,2.76-5.16,4.44,0-1.42-.07-2.31,0-3.19a6.87,6.87,0,0,0-4.43-7.58,25.91,25.91,0,0,0-3.4-1.36c-11.13-3.08-22.24-6.21-33.42-9.11C276.1,237,270.65,236,265.22,235c-5.64-1.05-7.89.19-10.34,5.43-.56,1.21-1,2.51-1.56,3.7-1.55,3.15-.84,5.83,1.34,8.35,1.31,1.51,2.44,3.2,3.65,4.81l-.27.76c-13.85-7.15-27.93-2.59-42-1.17-.45-2.43,1.21-2.52,2.42-2.83,7.33-1.88,14.69-3.63,22-5.56A15.84,15.84,0,0,0,252,237.61,10.73,10.73,0,0,0,249.59,226c-1.93-2-3.72-4.25-5.63-6.32-4.37-4.76-8.79-9.48-13.19-14.21-4.56-4.89-10.22-5.55-16.24-4.32-10.8,2.22-19.68,8.62-28.64,14.7-3.48,2.36-4.87,6.21-4.67,10.59,0,.76,0,1.52,0,2.28l-.91.11c-.34-1.65-.81-3.29-1-5-.55-4.74-3-7.69-7.41-9-.86-.24-1.71-.52-2.58-.76-7.46-2.08-15.06-2.39-22.73-2-1.26.06-3.18-.14-3.73-1-3.39-5.19-8.71-7.15-13.8-9.54-2-1-3.37-.21-4.29,1.88-4.08,9.18-5,19-5.36,28.9-.15,4.09,1.7,7.62,5.41,9.18,4.55,1.91,9.34,3.18,14.18,4.78.84-2.61,1.53-4.71,2.22-6.82l.65-.05a8.89,8.89,0,0,1,.85,2.6q-.12,6.84-.52,13.67c0,.65-.8,1.26-1.23,1.89l-1.53-1.34c-1.06-.91-2-2.16-3.21-2.65a24.29,24.29,0,0,0-5.69-1.32c-4.26-.62-5.73.48-6.16,4.91a77.77,77.77,0,0,0,7.67,41.72,8.32,8.32,0,0,0,3.4,3.43c2.35,1.29,4.78.62,6.86-1s-.12-3-.11-4.55c0-.32-.26-.66-.24-1,.08-1.1.22-2.19.34-3.28l.74-.11c7.74,11.89,17.67,20.48,31.84,22.82-2.09,2.33-4.29,2.72-8,1.43-5.17-1.77-10.42-3.36-15.41-5.58-4.48-2-7.82-.86-10.85,2.64,1.67,5.89,5.92,9.91,12.87,12.25,14.56,4.89,28.24,2.08,41.34-5.21a5.57,5.57,0,0,0,2.44-3.5c.91-6,0-11.6-3.56-16.59-1.78-2.53-4-3.73-7.14-3.28s-6.26.66-9.37,1c-.55-1.9.38-2.51,1.66-3,3.53-1.26,7.11-2.4,10.56-3.89,7.09-3.05,8.5-10,3.23-15.82-3.14-3.47-6.49-6.73-9.75-10.08a3.66,3.66,0,0,1,2.75.51c6.67,4.35,13.31,8.77,20,13.16,4.13,2.72,4.89,2.67,8.75-.55,1.85-1.53,3.24-1.29,4.54.92C214.26,282.12,212,286.59,209.65,291.57ZM542.1,149.89c3.57-5.18,3.64-5.79.18-10.36-3-4.05-6.17-8.07-9.46-11.92-8.68-10.17-18.34-19.12-30.23-25.16-3-1.51-6-3.08-8.88-4.76a12.83,12.83,0,0,1-2.31-2.24c.12-.3.23-.61.35-.92,1.1.1,2.37-.15,3.27.34,8.71,4.71,17.76,8.88,24.83,16.28,1.15,1.21,2.13,1.39,3.11-.26-2.56-4-5.17-7.88-9.26-10.54-5.51-3.58-10.8-7.51-16.17-11.32-12.36-8.78-25.12-16.83-38.85-23.12-.86-.39-1.75-.71-2.63-1.06a3.34,3.34,0,0,0,1,1.79A61.74,61.74,0,0,1,469,82.87a23.48,23.48,0,0,0,1.7,2.76c5.68,8,11.6,15.88,17,24.11,2.62,4,5.15,6.7,10.18,5.34,1.36-.37,2.94.21,4.42.35,0,.3,0,.59,0,.89l-2.72.83c-3,.92-6,1.69-8.85,2.81-4.49,1.73-7.86,7.32-7.51,12.25a4,4,0,0,0,1.09,2.45c4.43,4,9.42,6.42,15.4,4.62s11.78-3.81,17.63-5.83c3.09-1.08,5.49-.45,8,1.86C530.75,140.34,536.48,145,542.1,149.89ZM400.5,50.61a9.79,9.79,0,0,0,1,1.32c8.29,7.32,16.65,14.56,24.86,22a14.23,14.23,0,0,0,13.38,3.45A31.85,31.85,0,0,1,454,77a13.17,13.17,0,0,0,2.67.14c1.36,0,2.12-.73,1.69-2-.69-2.11-1.26-4.45-2.57-6.11A39.71,39.71,0,0,0,437,55.52a105.17,105.17,0,0,0-32.87-5.27C403,50.25,401.91,50.46,400.5,50.61ZM240.2,324c.06-.32.11-.63.17-.94a16.08,16.08,0,0,0-3.66-1.27c-3.64-.35-7.29-.51-10.94-.65-2.1-.08-4.37-.49-6.29.14-10.36,3.41-20.64,7.08-30.92,10.73-1.59.56-3.11,1.34-2,3.67,1.39,2.94,2,3.33,4.48,2.11,15.07-7.56,30.86-12.33,47.64-13.34A8.05,8.05,0,0,0,240.2,324Zm12,16.41c-1.53-2.84-3.89-2.93-6.39-2.58-3,.43-6.08,1-9.14,1.39-11.26,1.56-22.4,3.69-33.12,7.7-.84.32-1.46,1.28-2.18,1.95a12.26,12.26,0,0,0,2.57,2.39c.67.33,1.74,0,2.57-.29,1.48-.45,2.9-1.06,4.36-1.58,8.22-2.93,16.82-3.37,25.38-4.09C241.79,344.84,247.19,343.6,252.15,340.42Zm14.51,3.73c-.1-.37-.19-.74-.29-1.1-3,.57-6.09.71-8.85,1.83a44.6,44.6,0,0,1-13.47,3c-9.45.73-19,1.18-28.12,4-1.45.44-3.84.49-3.43,2.72s2.64,1.64,4.27,1.44c9.82-1.2,19.64-2.35,29.44-3.68C253.66,351.37,260.15,347.7,266.66,344.15ZM334.57,343a2.46,2.46,0,0,0-.58-.41c-2-.68-4-1.36-6-2-3.44-1.08-4.59-.67-6.6,2.33q-5.22,7.78-10.4,15.57c-.43.65-.81,1.32-1.34,2.19C318.94,359.93,332.3,350.34,334.57,343Zm-89.08-10.59c-1.66-3.46-2.33-3.78-5.49-3a11.51,11.51,0,0,1-1.68.21c-3.94.45-8,.39-11.82,1.44-10.41,2.88-20.7,6.21-31,9.39-.61.19-1.42.45-1.67.93a4.46,4.46,0,0,0-.51,2.66c.06.35,1.3.68,2,.66a7.88,7.88,0,0,0,2-.79c4.89-1.79,9.67-4,14.69-5.22,7.89-1.89,15.94-3.07,23.92-4.55Zm38,9.51-.76-1a15,15,0,0,0-2.95,2.23c-2.13,2.65-4,5.53-6.12,8.2-7.44,9.38-14.95,18.7-22.38,28.09a25.57,25.57,0,0,0-2,3.59c3.21,1.21,4.86-.35,6.41-2.41,7.54-10.06,15.17-20.05,22.64-30.16C280.26,347.76,281.76,344.74,283.47,341.9Zm-4.68,44,.9.79a6.91,6.91,0,0,0,2.37-.89c6.75-6.18,13.17-12.78,15.79-22,2-6.94,3.11-14.12,4.49-21.22a2.65,2.65,0,0,0-1.1-2.28c-1.37-.58-1.71.64-1.94,1.8-.8,4.13-1.77,8.24-2.44,12.39a43.8,43.8,0,0,1-16.22,27.88C279.7,383.08,279.39,384.67,278.79,385.87Zm-9.27-2c1.3,1.91,2.54,2,3.87.46,9.58-11.17,17.09-23.58,20.85-38.19a13.08,13.08,0,0,0,0-3.13l-.95-.22a22.08,22.08,0,0,0-2,3c-1.84,4-3.44,8.21-5.38,12.2C281.46,367.2,276.82,376.41,269.52,383.85ZM321,362.23c9.82.94,17.59-3,23.83-10.51,1.88-2.27,1.95-3.93.27-5.19-3-2.24-5.12-2.15-6.64.48a35.52,35.52,0,0,1-13.23,12.77C323.81,360.62,322.39,361.41,321,362.23Zm-2.71-21.65c-.07-2.92-1.95-5.4-4-5.75-2.59-.45-3.3,1.53-4,3.48-1.6,4.59-3.25,9.15-4.72,13.78-.29.88-.2,2.49.34,2.91s2,.22,2.91-.1a4.33,4.33,0,0,0,1.71-1.69c2.25-3.3,4.47-6.61,6.61-10A13.91,13.91,0,0,0,318.27,340.58Zm-31.73,6.22-.74-.56c-.21.34-.42.68-.65,1q-11.72,16.63-23.42,33.28a6.71,6.71,0,0,0-1,2.53,1.88,1.88,0,0,0,.67,1.43c.25.19.92,0,1.3-.24a5.2,5.2,0,0,0,1-1.06c9.07-10,16-21.43,21.81-33.67C286,348.66,286.21,347.71,286.54,346.8ZM266,352.25l-.36-.92a10.56,10.56,0,0,0-2.18,1,79.23,79.23,0,0,0-18.36,19,70,70,0,0,0-4.76,8.78c-.32.69.32,1.87.52,2.82.94-.25,2.12-.23,2.76-.82a11.74,11.74,0,0,0,1.93-3.18c4.4-8.41,9.57-16.23,16.29-22.84C263.13,354.75,264.56,353.52,266,352.25Zm-26.54,5.84c-4.62.24-17.81,13.15-20,19.38l3.83,2.16C228.64,372.39,234,365.34,239.41,358.09Zm30.3-20c-.58-.63-.88-1-1.22-1.33q-7.67-7.38-15.34-14.74a6.35,6.35,0,0,0-6-1.58C248.62,326.65,263.33,338.3,269.71,338.11ZM249,358.48c-8.52,5.8-14.86,13.79-19.73,23.28,3.16,1.48,3.51,1.42,5-.83C239.19,373.44,244.11,365.93,249,358.48Zm19.42-35.06-.44,1c3.27,6,7.62,10.81,14.06,13.19,1,.38,2.25.16,3.93.24-.72-.94-1-1.36-1.31-1.7-3.47-3.42-6.81-7-10.49-10.17C272.62,324.69,270.36,324.26,268.42,323.42Zm-67.29,40.4a3.23,3.23,0,0,0-3.47-3.35,6,6,0,0,0-5.17,5.46,3.2,3.2,0,0,0,3.64,3.15A5.62,5.62,0,0,0,201.13,363.82Zm21,.92c-5-.16-10.13,4.13-11.72,9.91,1.58-.26,3.37,0,4.14-.79C217.25,371.09,219.56,367.94,222.17,364.74Zm-14.34-.56c-2.91-.14-4.49,1.33-5.88,3.14-2.3,3-1.85,4.43,2,5.82ZM193,356.65c-.09-1.42-1.1-2.28-2.41-1.63a17.46,17.46,0,0,0-4.49,3.33c-1,1-.25,2.74,1.16,3.11C189.07,361.92,192.91,358.85,193,356.65Zm-17.13-14.2c2.12,2.67,4.15,2.83,6.18,2.49.79-.13,1.47-1,2.2-1.54-.73-.79-1.47-2.27-2.18-2.25A35.2,35.2,0,0,0,175.88,342.45Zm113.05-7.89c-.09-5.35-2.29-7.78-6.49-7.61.39.54.69,1,1.05,1.43C285.16,330.3,286.84,332.19,288.93,334.56Zm10.27-4.36-.67.69a32,32,0,0,0,.55,3.66c.15.57.74,1.42,1.13,1.42a2.22,2.22,0,0,0,1.75-1c.38-.92.8-2.42.37-3C301.66,331.07,300.28,330.76,299.2,330.2ZM182,353.59c.43.28.9.75,1.05.66,1.92-1.18,3.8-2.43,5.66-3.71a1,1,0,0,0,0-.85,2.18,2.18,0,0,0-1.22-.45C184.74,349.34,183.36,351.36,182,353.59Zm110.54-24,1.65,6.19C294.78,333.33,295.23,331,292.51,329.59Z"/><g class="cls-15"><polygon points="255.04 94.86 190.26 34.55 191.94 32.61 256.71 92.92 255.04 94.86"/><path d="M258.39,91a4,4,0,0,1,.29,5.52,3.65,3.65,0,0,1-5.31.31,4,4,0,0,1-.3-5.53A3.66,3.66,0,0,1,258.39,91Z"/></g><g class="cls-15"><polygon points="182.78 410.55 181.16 408.57 245.4 351.39 247.03 353.37 182.78 410.55"/><path d="M243.76,349.4a3.67,3.67,0,0,1,5.31.43,4,4,0,0,1-.41,5.52,3.66,3.66,0,0,1-5.31-.43A4,4,0,0,1,243.76,349.4Z"/></g><g class="cls-15"><polygon points="171.19 245.5 93.01 216.14 93.86 213.69 172.04 243.06 171.19 245.5"/><path d="M172.89,240.6a4,4,0,0,1,2.27,5,3.74,3.74,0,0,1-4.83,2.35,4,4,0,0,1-2.26-5A3.73,3.73,0,0,1,172.89,240.6Z"/></g><g class="cls-15"><polygon points="467.36 154.61 465.89 152.5 565.97 76.74 567.45 78.84 467.36 154.61"/><path d="M468.84,156.72a3.66,3.66,0,0,1-5.26-.86,4,4,0,0,1,.83-5.47,3.67,3.67,0,0,1,5.26.86A4,4,0,0,1,468.84,156.72Z"/></g><g class="cls-15"><polygon points="468.28 363.33 391.63 291.79 393.3 289.85 469.95 361.39 468.28 363.33"/><path d="M390,293.73a4,4,0,0,1-.29-5.52,3.66,3.66,0,0,1,5.32-.3,4,4,0,0,1,.29,5.53A3.66,3.66,0,0,1,390,293.73Z"/></g><text class="cls-16" transform="translate(66.46 12.15)">AL<tspan class="cls-17" x="19.05" y="0">F</tspan><tspan class="cls-18" x="27.19" y="0">AB</tspan><tspan class="cls-19" x="46.33" y="0">ET</tspan><tspan class="cls-20" x="67.81" y="0">IZ</tspan><tspan class="cls-21" x="83.02" y="0">A</tspan><tspan x="92.44" y="0">C</tspan><tspan class="cls-22" x="101.6" y="0">I</tspan><tspan x="107.07" y="0">ON</tspan><tspan class="cls-18"><tspan x="4.58" y="16.8">E </tspan><tspan class="cls-23" x="18.45" y="16.8">I</tspan><tspan class="cls-24" x="23.85" y="16.8">N</tspan><tspan class="cls-22" x="34.75" y="16.8">F</tspan><tspan class="cls-24" x="43.58" y="16.8">ORM</tspan><tspan class="cls-21" x="78.44" y="16.8">A</tspan><tspan class="cls-24" x="87.86" y="16.8">C</tspan><tspan class="cls-22" x="97.02" y="16.8">I</tspan><tspan class="cls-24" x="102.49" y="16.8">ON</tspan></tspan></text><text class="cls-25" transform="translate(444.26 385.15)">C<tspan class="cls-26" x="9.44" y="0">OMU</tspan><tspan class="cls-27" x="44.66" y="0">N</tspan><tspan class="cls-26" x="55.34" y="0">I</tspan><tspan class="cls-21" x="60.96" y="0">CA</tspan><tspan class="cls-24" x="79.25" y="0">C</tspan><tspan class="cls-22" x="88.41" y="0">I</tspan><tspan class="cls-24" x="93.88" y="0">ON Y</tspan><tspan x="7.27" y="16.8">C</tspan><tspan class="cls-26" x="16.7" y="16.8">OLABOR</tspan><tspan class="cls-28" x="76.16" y="16.8">A</tspan><tspan class="cls-18" x="85.58" y="16.8">C</tspan><tspan class="cls-29" x="94.74" y="16.8">I</tspan><tspan class="cls-24" x="100.21" y="16.8">ON</tspan></text><text class="cls-30" transform="translate(84.18 428.15)">CRE<tspan class="cls-21" x="28.84" y="0">A</tspan><tspan class="cls-24" x="38.26" y="0">C</tspan><tspan class="cls-22" x="47.42" y="0">I</tspan><tspan class="cls-24" x="52.89" y="0">ON DE </tspan><tspan class="cls-31"><tspan x="7.13" y="16.8">C</tspan><tspan class="cls-26" x="16.56" y="16.8">O</tspan><tspan class="cls-32" x="26.92" y="16.8">N</tspan><tspan class="cls-33" x="38.93" y="16.8">T</tspan><tspan class="cls-24" x="48.96" y="16.8">E</tspan><tspan class="cls-27" x="58.39" y="16.8">N</tspan><tspan class="cls-26" x="69.07" y="16.8">I</tspan><tspan x="74.69" y="16.8">D</tspan><tspan class="cls-24" x="85.4" y="16.8">O</tspan></tspan></text><text class="cls-16" transform="translate(0.28 205.15)">SEGURI<tspan class="cls-34" x="54.56" y="0">D</tspan><tspan x="64.57" y="0">AD</tspan></text><text class="cls-16" transform="matrix(1, -0.01, 0.01, 1, 587.1, 58.74)">RE<tspan class="cls-35" x="19.68" y="0">S</tspan><tspan x="28.74" y="0">O</tspan><tspan class="cls-36" x="39.1" y="0">L</tspan><tspan class="cls-31" x="47.47" y="0">V</tspan><tspan x="57.19" y="0">ER</tspan><tspan class="cls-18"><tspan x="-7.03" y="16.8">PROBLEMAS</tspan></tspan></text></g></g></g></svg>