<svg xmlns="http://www.w3.org/2000/svg" viewBox="0 0 480.18 403.12"><defs><style>.cls-1{font-size:27.95px;}.cls-1,.cls-5{fill:#231f20;font-family:Rockwell-Bold, Rockwell;font-weight:700;}.cls-2{fill:#eea8a0;}.cls-3{fill:#c2986b;}.cls-4,.cls-9{fill:none;stroke:#231f20;stroke-miterlimit:10;stroke-width:9px;}.cls-5{font-size:78.53px;}.cls-6{letter-spacing:-0.03em;}.cls-7{letter-spacing:-0.03em;}.cls-8{letter-spacing:-0.03em;}.cls-9{stroke-linecap:round;}</style></defs><title>Recurso 2</title><g id="Capa_2" data-name="Capa 2"><g id="Capa_1-2" data-name="Capa 1"><text class="cls-1" transform="translate(160.82 396)">5 NIVELES</text><path class="cls-2" d="M332.47,80.49A28.69,28.69,0,0,0,312,53a22.93,22.93,0,0,0,.24-3.13,22.22,22.22,0,0,0-18.14-21.84,27.16,27.16,0,0,0-50.55-9.78A27.17,27.17,0,0,0,193,28.05a22.22,22.22,0,0,0-18.14,21.84,21.44,21.44,0,0,0,.25,3.13,28.66,28.66,0,0,0-12.28,47.49,28.67,28.67,0,0,0,9.5,46.5,19.56,19.56,0,0,0,18.8,25c.59,0,1.18,0,1.76-.09a28.68,28.68,0,0,0,50.67.78,28.68,28.68,0,0,0,50.67-.78c.58.05,1.16.09,1.76.09a19.56,19.56,0,0,0,18.79-25,28.68,28.68,0,0,0,9.51-46.5A28.59,28.59,0,0,0,332.47,80.49Z"/><rect class="cls-3" x="56.09" y="209.47" width="368" height="59.33"/><path class="cls-4" d="M331,80.49A28.69,28.69,0,0,0,310.54,53a21.44,21.44,0,0,0,.25-3.13,22.22,22.22,0,0,0-18.14-21.84,27.17,27.17,0,0,0-50.56-9.78,27.17,27.17,0,0,0-50.56,9.78,22.22,22.22,0,0,0-18.14,21.84,21.44,21.44,0,0,0,.25,3.13,28.68,28.68,0,0,0-12.28,47.49,28.68,28.68,0,0,0,9.51,46.5,19.53,19.53,0,0,0,18.79,25c.59,0,1.18,0,1.76-.09a28.68,28.68,0,0,0,50.67.78,28.68,28.68,0,0,0,50.67-.78c.58.05,1.17.09,1.76.09a19.53,19.53,0,0,0,18.79-25,28.68,28.68,0,0,0,9.51-46.5A28.59,28.59,0,0,0,331,80.49Z"/><line class="cls-4" x1="242.25" y1="16.31" x2="242.25" y2="173.21"/><path class="cls-4" d="M193.87,128.56a22.26,22.26,0,0,1-2,43.59c-.54.09-1.09.15-1.64.19"/><path class="cls-4" d="M179,84.36A15.46,15.46,0,0,1,179,89a15.62,15.62,0,0,1-17.61,13.34c-.39,0-.77-.12-1.14-.2"/><path class="cls-4" d="M231.6,37A15.35,15.35,0,0,0,229,33.15a15.61,15.61,0,0,0-22.07-1c-.29.26-.57.53-.83.81"/><path class="cls-4" d="M223.31,121a15.84,15.84,0,0,1,1.46,4.37,15.63,15.63,0,0,1-12.65,18.11c-.39.07-.77.12-1.15.16"/><path class="cls-4" d="M297.72,102.15a16.2,16.2,0,0,1,3-3.49,15.63,15.63,0,0,1,22,1.57c.26.29.5.6.73.9"/><path class="cls-4" d="M281.55,153.19a16.76,16.76,0,0,1,32.39-6.64"/><path class="cls-4" d="M242.25,113.36a16.75,16.75,0,1,0,29-10.74c-.29-.3-.59-.6-.89-.88"/><path class="cls-4" d="M261.65,67.84a14.75,14.75,0,1,1,25.57,9.45q-.37.4-.78.78"/><path class="cls-4" d="M189.49,28.56a16.56,16.56,0,0,1,18,24.43c-.2.36-.42.71-.65,1"/><path class="cls-4" d="M271,54.11a19.06,19.06,0,0,1,23.14-25.8"/><path class="cls-4" d="M242.09,85.09c.54,16.31-35.48,17.54-35.75-11.28"/><text class="cls-5" transform="translate(0 351.43)">ME<tspan class="cls-6" x="145.44" y="0">D</tspan><tspan class="cls-7" x="210.2" y="0">I</tspan><tspan x="242.95" y="0">C</tspan><tspan class="cls-8" x="309.47" y="0">IÓ</tspan><tspan x="412.81" y="0">N</tspan></text><line class="cls-4" x1="86.84" y1="210.47" x2="86.84" y2="242.14"/><line class="cls-4" x1="108.17" y1="210.64" x2="108.17" y2="226.97"/><line class="cls-4" x1="128.5" y1="210.64" x2="128.5" y2="226.97"/><line class="cls-4" x1="148.84" y1="210.64" x2="148.84" y2="226.97"/><line class="cls-4" x1="169.17" y1="210.64" x2="169.17" y2="226.97"/><line class="cls-4" x1="190.17" y1="210.47" x2="190.17" y2="242.14"/><line class="cls-4" x1="211.5" y1="210.64" x2="211.5" y2="226.97"/><line class="cls-4" x1="231.84" y1="210.64" x2="231.84" y2="226.97"/><line class="cls-4" x1="252.17" y1="210.64" x2="252.17" y2="226.97"/><line class="cls-4" x1="272.5" y1="210.64" x2="272.5" y2="226.97"/><line class="cls-4" x1="293.5" y1="210.47" x2="293.5" y2="242.14"/><line class="cls-4" x1="314.84" y1="210.64" x2="314.84" y2="226.97"/><line class="cls-4" x1="335.17" y1="210.64" x2="335.17" y2="226.97"/><line class="cls-4" x1="355.5" y1="210.64" x2="355.5" y2="226.97"/><line class="cls-4" x1="375.84" y1="210.64" x2="375.84" y2="226.97"/><line class="cls-4" x1="396.34" y1="210.47" x2="396.34" y2="242.14"/><rect class="cls-9" x="57.59" y="209.47" width="368" height="59.33"/></g></g></svg>