<svg xmlns="http://www.w3.org/2000/svg" xmlns:xlink="http://www.w3.org/1999/xlink" viewBox="0 0 535.64 453.94"><defs><style>.cls-1{fill:none;}.cls-2{isolation:isolate;}.cls-3{fill:url(#linear-gradient);}.cls-4{fill:#9b4d07;}.cls-5{fill:url(#linear-gradient-2);}.cls-6{opacity:0.23;}.cls-14,.cls-6{mix-blend-mode:multiply;}.cls-7{fill:#ffae71;}.cls-8{fill:#602b00;}.cls-9{fill:url(#linear-gradient-3);}.cls-10{fill:#d14b70;}.cls-11{fill:#991834;}.cls-12,.cls-14,.cls-19{fill:#383f5e;}.cls-13{fill:#262a38;}.cls-14{opacity:0.14;}.cls-15{fill:url(#linear-gradient-4);}.cls-16{fill:url(#linear-gradient-5);}.cls-17{fill:url(#linear-gradient-6);}.cls-18,.cls-26{fill:#fcb4b4;}.cls-18,.cls-25{mix-blend-mode:overlay;}.cls-19{opacity:0.32;}.cls-19,.cls-33{mix-blend-mode:screen;}.cls-20{fill:url(#linear-gradient-7);}.cls-21{fill:url(#linear-gradient-8);}.cls-22{fill:url(#linear-gradient-9);}.cls-23{fill:url(#linear-gradient-10);}.cls-24{fill:url(#linear-gradient-11);}.cls-25{opacity:0.6;}.cls-27{fill:#fff;}.cls-28{fill:url(#linear-gradient-12);}.cls-29{clip-path:url(#clip-path);}.cls-30{fill:url(#linear-gradient-13);}.cls-31{fill:url(#linear-gradient-14);}.cls-32{fill:#d1662d;opacity:0.39;}.cls-33{fill:#ffcd2c;opacity:0.35;}.cls-34{font-size:35.84px;fill:#fbb788;stroke:#f7931e;stroke-miterlimit:10;font-family:Rockwell-Bold, Rockwell;font-weight:700;}.cls-35{letter-spacing:-0.01em;}.cls-36{letter-spacing:-0.03em;}.cls-37{letter-spacing:-0.01em;}.cls-38{letter-spacing:-0.03em;}.cls-39{letter-spacing:0em;}.cls-40{letter-spacing:-0.03em;}.cls-41{letter-spacing:-0.03em;}.cls-42{letter-spacing:-0.02em;}.cls-43{letter-spacing:-0.07em;}</style><linearGradient id="linear-gradient" x1="155.27" y1="206.84" x2="155.27" y2="304.12" gradientTransform="translate(0.15 -0.19) rotate(0.04)" gradientUnits="userSpaceOnUse"><stop offset="0" stop-color="#ffce94"/><stop offset="1" stop-color="#ffae71"/></linearGradient><linearGradient id="linear-gradient-2" x1="372.82" y1="206.1" x2="372.82" y2="288.09" xlink:href="#linear-gradient"/><linearGradient id="linear-gradient-3" x1="-95.79" y1="140.24" x2="-111.02" y2="109.36" gradientTransform="matrix(-1, 0, 0, 1, 261.44, -0.01)" gradientUnits="userSpaceOnUse"><stop offset="0" stop-color="#f96896"/><stop offset="1" stop-color="#ff91ae"/></linearGradient><linearGradient id="linear-gradient-4" x1="-135.8" y1="150.95" x2="-129.77" y2="125.43" gradientTransform="matrix(-1, 0, 0, 1, 261.44, -0.01)" gradientUnits="userSpaceOnUse"><stop offset="0" stop-color="#383f5e"/><stop offset="1" stop-color="#54748e"/></linearGradient><linearGradient id="linear-gradient-5" x1="-94.9" y1="106.16" x2="-91.67" y2="81.36" xlink:href="#linear-gradient-4"/><linearGradient id="linear-gradient-6" x1="-108.31" y1="119.51" x2="-120.77" y2="103.84" xlink:href="#linear-gradient-3"/><linearGradient id="linear-gradient-7" x1="173.66" y1="140.23" x2="158.42" y2="109.34" gradientTransform="translate(0.15 -0.19) rotate(0.04)" xlink:href="#linear-gradient-3"/><linearGradient id="linear-gradient-8" x1="133.64" y1="150.94" x2="139.68" y2="125.42" gradientTransform="translate(0.15 -0.19) rotate(0.04)" xlink:href="#linear-gradient-4"/><linearGradient id="linear-gradient-9" x1="174.54" y1="106.15" x2="177.77" y2="81.35" gradientTransform="translate(0.15 -0.19) rotate(0.04)" xlink:href="#linear-gradient-4"/><linearGradient id="linear-gradient-10" x1="161.13" y1="119.5" x2="148.67" y2="103.83" gradientTransform="translate(0.15 -0.19) rotate(0.04)" xlink:href="#linear-gradient-3"/><linearGradient id="linear-gradient-11" x1="265.27" y1="200.27" x2="265.27" y2="95.53" gradientTransform="translate(0.15 -0.19) rotate(0.04)" xlink:href="#linear-gradient-3"/><linearGradient id="linear-gradient-12" x1="264.69" y1="219.62" x2="264.69" y2="363.93" gradientTransform="translate(0.15 -0.19) rotate(0.04)" gradientUnits="userSpaceOnUse"><stop offset="0" stop-color="#ffd297"/><stop offset="1" stop-color="#ffae71"/></linearGradient><clipPath id="clip-path"><path class="cls-1" d="M353.43,193.42c9.77,1.19,14.51-25.37-3.5-26.37,0,0-3-25.38,16.77-23.17s50.31,4.26,61.37,37.92S402,253.72,402,253.72L271.1,267.11l-95.23-7.28-70.35-22.65s6.94-91.92,45.27-87.5,26,18.92,26,18.92c-13.57,2.52-10,26,1.39,24.37Z"/></clipPath><linearGradient id="linear-gradient-13" x1="265.06" y1="145.83" x2="265.06" y2="212.06" gradientTransform="translate(0.15 -0.19) rotate(0.04)" gradientUnits="userSpaceOnUse"><stop offset="0" stop-color="#ffce94"/><stop offset="1" stop-color="#ffedcc"/></linearGradient><linearGradient id="linear-gradient-14" x1="263.92" y1="2.68" x2="263.92" y2="93.71" gradientTransform="translate(0.15 -0.19) rotate(0.04)" gradientUnits="userSpaceOnUse"><stop offset="0" stop-color="#ffcd2c"/><stop offset="0.32" stop-color="#fec52b"/><stop offset="0.82" stop-color="#fbae2a"/><stop offset="1" stop-color="#faa429"/></linearGradient></defs><title>Recurso 8</title><g class="cls-2"><g id="Capa_2" data-name="Capa 2"><g id="Capa_1-2" data-name="Capa 1"><path class="cls-3" d="M192.73,262.35c0,22.36-16.42,40.48-36.65,40.46-14.88,0-33.86-12.82-37.64-37.19-3.71-23.88,7.39-51.88,37.69-43.8C175.73,227.05,192.75,240,192.73,262.35Z"/><path class="cls-4" d="M191.73,262.35c-.28,17-10.36,34-27.61,38.45-15,3.83-29.87-4.47-37.9-17s-9.83-30-4.61-44.13c5.78-15.58,20.07-20.94,35.56-16.51,18.71,5.35,34.23,18.61,34.56,39.2a1,1,0,0,0,2,0c-.3-18.81-12.7-32.34-29.66-39-14.95-5.85-32.07-5.87-41.26,9.19-16.37,26.84,1.58,75.07,37.17,71,20.51-2.33,33.43-21.69,33.75-41.24A1,1,0,0,0,191.73,262.35Z"/><path class="cls-5" d="M335.29,262.45c0,22.37,16.38,40.51,36.61,40.53,14.88,0,33.87-12.77,37.69-37.14C413.33,242,402.26,214,372,222,352.34,227.18,335.31,240.09,335.29,262.45Z"/><path class="cls-4" d="M334.29,262.45c.28,17.71,10.64,35.34,28.42,40.27,15.34,4.26,30.81-3.51,39.7-16.1,9.72-13.75,11.79-33.8,5.15-49.31S386,217,370.38,221.38c-19.61,5.55-35.71,19.61-36.09,41.07a1,1,0,0,0,2,0c.32-18.15,12.51-31,28.88-37.24,14.59-5.55,30.92-5.19,39.15,9.95,13.53,24.88-1.41,68.19-33.74,66.79-20.61-.89-34-20.11-34.29-39.5A1,1,0,0,0,334.29,262.45Z"/><g class="cls-6"><path class="cls-7" d="M194,262.35c0,22.36-16.43,40.48-36.66,40.47-14.88,0-33.86-12.83-37.64-37.19a57.27,57.27,0,0,1-.36-15c.1,1,.22,1.91.37,2.85,3.78,24.37,22.75,37.18,37.64,37.19,18.32,0,33.52-14.86,36.23-34.29A42.77,42.77,0,0,1,194,262.35Z"/><path class="cls-7" d="M410.88,265.85C407.06,290.2,388.07,303,373.19,303c-20.23,0-36.62-18.16-36.6-40.52a41.29,41.29,0,0,1,.43-6c2.68,19.43,17.85,34.33,36.18,34.34,14.88,0,33.87-12.77,37.69-37.13.15-1,.27-1.89.37-2.85A57.71,57.71,0,0,1,410.88,265.85Z"/></g><ellipse class="cls-8" cx="265.35" cy="186.65" rx="111.82" ry="26.05"/><path class="cls-9" d="M369.77,113.74S366.87,138,350,136.4l-7.59,11.73s29.44,6.19,33.39-31.1Z"/><path class="cls-10" d="M342.4,148.13s29.43,6.19,33.39-31.1l-2.6-1.42c-3.47,27.44-21.18,30.28-29.23,30.1Z"/><path class="cls-11" d="M368.77,113.74c-1.26,10.08-7,22.37-18.78,21.66a1,1,0,0,0-.86.49l-7.6,11.73a1,1,0,0,0,.6,1.47,28.68,28.68,0,0,0,16.52-1.88c12.08-5.19,16.71-18,18.14-30.18a1,1,0,0,0-.5-.86l-6-3.3c-1.13-.61-2.14,1.11-1,1.73s5.09,1.93,5.69,3.11c.43.86-1,4.82-1.3,6.21a44.11,44.11,0,0,1-1.6,5.44c-2.25,6.17-6.18,11.7-12,14.94a26.43,26.43,0,0,1-17.4,2.86l.6,1.47,3-4.62c1.17-1.8,2.38-4.88,4-6.23,1.19-1,.11-.17,1.87-.32a19.09,19.09,0,0,0,3.68-.6,15.3,15.3,0,0,0,5.92-3.35c5.4-4.81,8.13-12.76,9-19.77C370.93,112.46,368.93,112.47,368.77,113.74Z"/><polygon class="cls-12" points="358.85 101.49 384.88 131.99 389.27 127.88 363.23 97.38 358.85 101.49"/><path class="cls-13" d="M358.14,102.2l26,30.49a1,1,0,0,0,1.42,0l4.38-4.11a1,1,0,0,0,0-1.41l-26-30.5a1,1,0,0,0-1.41,0l-4.39,4.11c-.94.88.47,2.3,1.41,1.42a24.45,24.45,0,0,0,3.14-3c.19-.25.66-.45.79-.74.55-1.14.46,1.61-.93-.4.1.14.33.29.38.45.64,2,3.74,4.39,5.06,5.92l16.14,18.91c1.43,1.68,2.9,3.33,4.3,5-.09-.12.53-1.17-.33-.83-.58.22-1.28,1.2-1.73,1.62a20.22,20.22,0,0,0-1.91,1.79c-.26.32,1.31.55.94.05-3.75-5.13-8.38-9.82-12.51-14.66l-13.34-15.62C358.72,99.8,357.31,101.22,358.14,102.2Z"/><polygon class="cls-14" points="358.85 101.49 384.88 131.99 386.61 130.37 360.58 99.86 358.85 101.49"/><ellipse class="cls-15" cx="394.11" cy="138.18" rx="12.94" ry="13.56"/><path class="cls-13" d="M384.78,127.36c-5.46,5.57-6.27,14.5-1,20.56A13.69,13.69,0,0,0,403.45,149a15.13,15.13,0,0,0,1-20.56c-5.23-6-13.83-6.11-19.69-1.07-1,.84.44,2.25,1.41,1.41a11.73,11.73,0,0,1,16.86,1.07,13.11,13.11,0,0,1-1,17.74,11.69,11.69,0,0,1-16.86-1.07c-4.48-5.29-3.68-12.94,1-17.74C387.09,127.85,385.68,126.44,384.78,127.36Z"/><path class="cls-14" d="M381.19,139a13.88,13.88,0,0,0,3.27,8.23,12.53,12.53,0,0,0,18.28,1.07,14,14,0,0,0,1.93-17.94,13.82,13.82,0,0,1-4.28,10.91,12.52,12.52,0,0,1-18.28-1.06A14.85,14.85,0,0,1,381.19,139Z"/><ellipse class="cls-16" cx="354.38" cy="91.64" rx="12.94" ry="13.56"/><path class="cls-13" d="M345.05,80.82c-5.46,5.57-6.26,14.5-1,20.56a13.69,13.69,0,0,0,19.69,1.07,15.13,15.13,0,0,0,1-20.56c-5.23-6-13.83-6.11-19.69-1.07-1,.84.44,2.25,1.41,1.41a11.74,11.74,0,0,1,16.86,1.07,13.11,13.11,0,0,1-1,17.74A11.7,11.7,0,0,1,345.44,100c-4.47-5.29-3.68-12.94,1-17.74C347.36,81.31,346,79.9,345.05,80.82Z"/><path class="cls-14" d="M341.61,93.86a13.75,13.75,0,0,0,3.13,6.82A12.53,12.53,0,0,0,363,101.75a14.06,14.06,0,0,0,2-17.83,13.91,13.91,0,0,1-4.14,12.33,12.54,12.54,0,0,1-18.28-1.07A13.87,13.87,0,0,1,341.61,93.86Z"/><path class="cls-17" d="M376.29,108.57c5.5,4.53,9.11,12.37,3,14.64s-10.64-3-14.1-8.31S367.61,101.44,376.29,108.57Z"/><path class="cls-11" d="M375.58,109.28c2.64,2.26,6.31,6.11,5.89,9.94-.26,2.34-2.51,3.41-4.67,3.52-2.5.13-4.67-1.23-6.42-2.9-2.33-2.22-5.93-6-5-9.59,1.35-5.25,7.19-3.32,10.22-1,1,.78,2.43-.63,1.42-1.41-3.7-2.87-9.59-5-12.71-.11s1.24,10.23,4.68,13.5,10.5,5.63,13.7.59c3-4.79-2.29-11.08-5.67-14C376,107,374.6,108.44,375.58,109.28Z"/><path class="cls-18" d="M371.6,108c3.89,1.18,6.24,5,8.42,8.23,1.31,2-1.77,4.49-3.19,2.58-2.07-2.79-5.25-4-7.8-6.19C366.93,110.84,369.21,107.3,371.6,108Z"/><path class="cls-19" d="M399.5,127c2.42,1.51.81,5.41-1.9,4.72-1.75-.45-3.13.5-4.56,1.46-1.72,1.17-3.33,1.84-5.4,1.35a2.24,2.24,0,0,1-1.56-2.14C386.05,125.71,395.13,124.26,399.5,127Z"/><path class="cls-19" d="M359.11,80.32c2.42,1.5.81,5.41-1.91,4.71-1.75-.45-3.13.5-4.55,1.47-1.72,1.16-3.34,1.83-5.41,1.35a2.23,2.23,0,0,1-1.55-2.14C345.66,79,354.73,77.59,359.11,80.32Z"/><path class="cls-20" d="M161.11,113.58s2.86,24.24,19.74,22.69L188.43,148s-29.44,6.15-33.34-31.14Z"/><path class="cls-10" d="M188.43,148s-29.44,6.15-33.35-31.14l2.61-1.42c3.43,27.44,21.13,30.31,29.18,30.15Z"/><path class="cls-11" d="M160.11,113.58c.86,7,3.59,15,9,19.79a15.59,15.59,0,0,0,5.46,3.23c1.78.57,5,.33,5.86.82,1.52.94,2.92,4.53,3.91,6.06l3.25,5,.6-1.47a26.56,26.56,0,0,1-17.4-2.89c-5.62-3.13-9.5-8.47-11.76-14.4a43.61,43.61,0,0,1-1.64-5.36c-.25-1-1.94-5.88-1.64-6.75.37-1.07,4.8-2.61,5.88-3.2s.12-2.35-1-1.73l-6,3.28a1,1,0,0,0-.49.87c1.41,12.2,6,25,18.09,30.2A28.78,28.78,0,0,0,188.7,149a1,1,0,0,0,.6-1.47l-7.58-11.75a1,1,0,0,0-.87-.49c-11.77.7-17.5-11.61-18.74-21.69C162,112.32,160,112.31,160.11,113.58Z"/><polygon class="cls-12" points="172.05 101.35 145.97 131.81 141.59 127.69 167.66 97.23 172.05 101.35"/><path class="cls-13" d="M171.34,100.64l-10.8,12.62-8.42,9.83c-1.85,2.16-4.47,4.43-5.9,6.9-.36.62-1.51,1.12-.3,1s-.28-.8-.78-1.38-1.52-1.81-2.14-2c-1.35-.43,0-.11-.62.66.1-.12.28-.42.41-.48.72-.33,1.62-1.89,2.14-2.5L160.64,107c2.07-2.42,5.5-5.2,6.9-8.06a6.55,6.55,0,0,1,.65-.76c.13-.18-1.16-.59-.78.22.63,1.32,2.86,2.68,3.93,3.69s2.35-.53,1.41-1.42l-4.38-4.12a1,1,0,0,0-1.41,0L140.88,127a1,1,0,0,0,0,1.42l4.38,4.11a1,1,0,0,0,1.42,0l26.07-30.45C173.59,101.08,172.18,99.66,171.34,100.64Z"/><polygon class="cls-14" points="172.05 101.35 145.97 131.81 144.24 130.18 170.31 99.72 172.05 101.35"/><ellipse class="cls-21" cx="136.73" cy="137.98" rx="12.94" ry="13.56"/><path class="cls-13" d="M144.67,128.59a13.19,13.19,0,0,1,1,17.74,11.68,11.68,0,0,1-16.86,1,13.12,13.12,0,0,1-1-17.73c4.43-5.23,11.82-5.4,16.87-1,1,.84,2.39-.57,1.41-1.41-5.86-5.05-14.46-5-19.69,1a15.14,15.14,0,0,0,1,20.57,13.71,13.71,0,0,0,19.69-1c5.25-6.06,4.46-15-1-20.57C145.18,126.26,143.77,127.67,144.67,128.59Z"/><path class="cls-14" d="M149.65,138.81a13.88,13.88,0,0,1-3.28,8.23,12.53,12.53,0,0,1-18.28,1,14,14,0,0,1-1.91-18,13.85,13.85,0,0,0,4.27,10.92,12.53,12.53,0,0,0,18.28-1A11.58,11.58,0,0,0,149.65,138.81Z"/><ellipse class="cls-22" cx="176.52" cy="91.5" rx="12.94" ry="13.56"/><path class="cls-13" d="M184.46,82.12a13.18,13.18,0,0,1,1,17.73,11.68,11.68,0,0,1-16.86,1,13.11,13.11,0,0,1-1-17.73c4.43-5.23,11.82-5.4,16.87-1,1,.83,2.39-.58,1.41-1.42-5.86-5-14.46-5-19.69,1a15.14,15.14,0,0,0,1,20.57,13.71,13.71,0,0,0,19.69-1c5.25-6.06,4.46-15-1-20.57C185,79.78,183.56,81.19,184.46,82.12Z"/><path class="cls-14" d="M189.29,93.74a13.79,13.79,0,0,1-3.13,6.82,12.54,12.54,0,0,1-18.28,1,14,14,0,0,1-2-17.83A13.9,13.9,0,0,0,170,96.11a12.54,12.54,0,0,0,18.28-1A14,14,0,0,0,189.29,93.74Z"/><path class="cls-23" d="M154.59,108.41c-5.51,4.51-9.12,12.35-3,14.63s10.63-3,14.11-8.29S163.28,101.29,154.59,108.41Z"/><path class="cls-11" d="M153.89,107.7c-3.36,2.87-8.31,8.66-6,13.49,2.66,5.45,10.17,3.36,13.65.2s7.9-8.43,5.29-13.31c-2.81-5.25-9-3.48-12.78-.54-1,.78,0,2.52,1,1.73,2.92-2.26,8.44-4.55,10.26.31,1.36,3.62-2.25,7.49-4.57,9.8a9.59,9.59,0,0,1-5.93,3.19c-2.37.16-5.18-.9-5.46-3.53-.42-3.83,3.27-7.67,5.9-9.93C156.28,108.28,154.86,106.87,153.89,107.7Z"/><path class="cls-18" d="M159.28,107.86c-3.89,1.18-6.24,4.94-8.43,8.22-1.31,2,1.77,4.5,3.19,2.58,2.07-2.79,5.26-4,7.81-6.18C164,110.69,161.68,107.14,159.28,107.86Z"/><path class="cls-19" d="M131.36,126.79c-2.43,1.51-.82,5.41,1.89,4.72,1.75-.45,3.13.51,4.56,1.47,1.72,1.17,3.33,1.84,5.4,1.36a2.24,2.24,0,0,0,1.56-2.14C144.81,125.53,135.74,124.07,131.36,126.79Z"/><path class="cls-19" d="M171.81,80.18c-2.42,1.5-.81,5.41,1.9,4.72,1.75-.45,3.13.5,4.55,1.47,1.72,1.16,3.34,1.84,5.41,1.36a2.25,2.25,0,0,0,1.56-2.14C185.26,78.91,176.19,77.45,171.81,80.18Z"/><path class="cls-24" d="M288.78,210.4c4.21-.64,7.8-3.88,10.93-7.2,4.22,11.84,23,12.68,27.88-.52A13.28,13.28,0,0,0,338,211.06c4.38.55,8.83-1.27,12.35-4.38a12.69,12.69,0,0,0,4.22-6.5c.62-2.68-.14-5.94-2.2-7.28,10.71,1.3,15.15-23.75-2.47-23.79,3.69-2.51,6.93-5.07,8.94-9.49s2.46-10,.43-14.45-6.78-7.1-10.79-5.39c1.74-.44,3-2.33,3.4-4.39a10.88,10.88,0,0,0-.92-6.06,15.23,15.23,0,0,0-8.83-8.29,18.26,18.26,0,0,0-11.46.08c6.15-6.38-11.52-24.42-20.88-14.43a11.6,11.6,0,0,0-8.51-6.47,10.6,10.6,0,0,0-9.51,4.06c-5.18-7.1-24.65-7.16-26.76,3.54-.41-9.09-17.27-12.44-26.15-3.58a10.63,10.63,0,0,0-9.51-4.08,11.61,11.61,0,0,0-8.51,6.46C211,95.49,194.6,115.13,200,121a18.23,18.23,0,0,0-11.45-.1,15.27,15.27,0,0,0-8.85,8.28,10.9,10.9,0,0,0-.92,6.07c.35,2,1.65,3.95,3.39,4.39-4-1.72-8.77,1-10.8,5.37s-1.59,10,.41,14.45,5.25,7,8.93,9.5c-17.62,0-13.21,25.07-2.5,23.79-2.06,1.34-2.82,4.6-2.21,7.28a12.74,12.74,0,0,0,4.21,6.5c3.52,3.12,8,4.94,12.35,4.4A13.29,13.29,0,0,0,203,202.59c4.85,13.2,23.65,12.39,27.88.56,3.12,3.32,6.74,6.43,10.92,7.22,20.5,3.85,23.15-7.2,23.15-7.2S268.4,213.5,288.78,210.4Z"/><g class="cls-25"><path class="cls-26" d="M236.3,104.94a5.66,5.66,0,0,0,1.1-2.21,10.34,10.34,0,0,0-8-2.57,11.61,11.61,0,0,0-8.51,6.46c-7-7.81-17.08-.46-20.65,6.66-1.76,4.57,2.26,3,4.44,0,2.9-4,9.27-4.48,13.26-3.31a4.47,4.47,0,0,0,1,.17,2.86,2.86,0,0,0,4.91-1.1c.52-1.33,3.34-2.82,4.47-3C231.23,105.61,234.11,107.75,236.3,104.94Z"/><path class="cls-26" d="M251.19,180.26c-3.05,1.24-5.5,4.47-4.77,8a1.76,1.76,0,0,0,3.48-.27,4.25,4.25,0,0,1,2.5-2.95,2.9,2.9,0,0,1,3.21.86c1.05,1.11,5.92,1.91,5.85,0C261.3,181.71,254.62,178.87,251.19,180.26Z"/><path class="cls-26" d="M244.37,100.59c0,1.35,1,2.75,2.4,2.63a17.76,17.76,0,0,1,12.59,3.93c3.85,3,5.68.67,5.68.67C264.7,100.38,253.35,96.79,244.37,100.59Z"/><path class="cls-26" d="M185.57,179.88c-1.27-.49-2.55-.84-3.95-1.28-.7-.21-2.69-.52-2.84-1.18a1.89,1.89,0,0,0-3.48-.48c-1.38,2.55,0,5.29,1.76,7.19a10,10,0,0,0,7.58,2.87C188.72,187,189.12,181.26,185.57,179.88Z"/><path class="cls-26" d="M219,188.66a19.34,19.34,0,0,0-1.26,6.2c-.35.11-.73.23-.83.25a6.17,6.17,0,0,1-3-.24c-2.63-.77-4.45,3.39-1.9,4.72,3.08,1.61,7.72,3,10.76.62,2.89-2.26,3.22-8.23,2.33-11.54S220.14,185.82,219,188.66Z"/><path class="cls-26" d="M197.44,127.34c-2.13-1.13-3.82,2.41-1.94,3.8,2.54,1.9,1.75,6.15,1.65,9a1.78,1.78,0,0,0,3.42.87C202.65,136,202.62,130.11,197.44,127.34Z"/><path class="cls-26" d="M200.61,180.19a12.69,12.69,0,0,0-5.58-4.38c-1.3-.49-2.49,1.55-1.39,2.5,1.84,1.58,2.74,3.93,3.73,6.13s2.46,5.35,5.34,5.22a2.46,2.46,0,0,0,2.38-2.49C204.82,184.37,202.25,182.29,200.61,180.19Z"/><path class="cls-26" d="M184.78,145.28a5.21,5.21,0,0,0-3-2.45,5.33,5.33,0,0,0-3.82.41,5.08,5.08,0,0,0-2.62,5.56,2.39,2.39,0,0,0,4.5.34h0a6.94,6.94,0,0,0,1.65.66C183.84,150.77,186.14,147.42,184.78,145.28Z"/><path class="cls-26" d="M262.29,131c-1.06-2.69-3.4-3.63-6.06-3.75a9,9,0,0,0-6.36,2.45c-1.6,1.36.12,4.54,2,3.71a6.86,6.86,0,0,1,3.82-.46c1.49.25,2.67,1.16,4.21,1.26A2.52,2.52,0,0,0,262.29,131Z"/><path class="cls-26" d="M294.76,105a5.84,5.84,0,0,1-1.1-2.2,10.32,10.32,0,0,1,8-2.56,11.6,11.6,0,0,1,8.5,6.47c7-7.81,17.08-.43,20.64,6.69,1.76,4.57-2.26,3-4.44,0-2.89-4-9.26-4.5-13.26-3.34a4.47,4.47,0,0,1-1,.17,2.86,2.86,0,0,1-4.9-1.1c-.52-1.34-3.34-2.83-4.46-3C299.83,105.66,297,107.79,294.76,105Z"/><path class="cls-26" d="M286.7,100.62c0,1.35-1,2.75-2.4,2.63a17.72,17.72,0,0,0-12.6,3.91c-3.86,3-5.68.67-5.68.67C266.37,100.38,277.72,96.81,286.7,100.62Z"/><path class="cls-26" d="M345.4,180c1.27-.49,2.54-.84,4-1.27.69-.21,2.68-.52,2.84-1.18a1.89,1.89,0,0,1,3.48-.48c1.37,2.56,0,5.29-1.77,7.19a10,10,0,0,1-7.59,2.86C342.24,187.09,341.85,181.38,345.4,180Z"/><path class="cls-26" d="M333.59,127.45c2.13-1.14,3.82,2.4,1.94,3.8-2.54,1.89-1.76,6.15-1.66,9a1.77,1.77,0,0,1-3.42.85C328.37,136.07,328.41,130.2,333.59,127.45Z"/><path class="cls-26" d="M330.35,180.29a12.72,12.72,0,0,1,5.59-4.38c1.3-.48,2.48,1.56,1.38,2.5-1.84,1.58-2.73,3.93-3.74,6.13s-2.46,5.34-5.33,5.21a2.46,2.46,0,0,1-2.38-2.49C326.14,184.46,328.71,182.39,330.35,180.29Z"/><path class="cls-26" d="M346.23,145.4a5.21,5.21,0,0,1,3-2.45,5.33,5.33,0,0,1,3.82.42,5.08,5.08,0,0,1,2.61,5.57,2.38,2.38,0,0,1-4.49.33h0a7.31,7.31,0,0,1-1.64.66C347.17,150.89,344.86,147.54,346.23,145.4Z"/><path class="cls-26" d="M272.67,129.1c.88-2.24,2.84-3,5.05-3.11a7.45,7.45,0,0,1,5.3,2c1.33,1.13-.11,3.78-1.72,3.08a5.68,5.68,0,0,0-3.18-.39c-1.24.21-2.22,1-3.51,1.05A2.1,2.1,0,0,1,272.67,129.1Z"/><path class="cls-26" d="M274.5,180.12a10.58,10.58,0,0,0-4.51,4.24,6.46,6.46,0,0,0-1.07,5.69,1.77,1.77,0,0,0,3.42,0c.2-1,3.44-2.48,4.33-2.51.69,0,.95.27,1.58.63a6.9,6.9,0,0,0,3.14,1,3.28,3.28,0,0,0,3.2-3.35C284,180.76,278.87,178.4,274.5,180.12Z"/><path class="cls-26" d="M314.79,196.63c-.51-1.54-1.46-2.8-1.73-4.42-.34-2.05.38-3.89.4-5.91a2.92,2.92,0,0,0-4.95-2.15c-4.62,4.76-4.7,15.86,3,16.94C313.66,201.39,315.44,198.59,314.79,196.63Z"/></g><path class="cls-10" d="M250.86,167.84c-2.63,1.61-4.81,2.95-8.09,3.09-3.68.16-7.05-1.23-10.64-2-5.24-1.17-9.85-.55-13.84,3.27-1.86,1.78.51,4.75,2.62,3.56,6.85-3.87,14.62,3.36,21.41,3.63,5,.2,11.64-2.62,12.54-8.29C255.23,168.72,253.07,166.49,250.86,167.84Z"/><path class="cls-10" d="M317,173.05c-1.28-6.42-8.91-6.55-13.81-5.76-7.95,1.27-16.47,5.64-23-1.65-1.9-2.11-5.18.59-3.81,3.07,3.24,5.85,8.08,8.69,14.67,8.3,3.62-.21,7.09-1.23,10.61-2,4.53-1,7.4-.85,11.49,1.19A2.71,2.71,0,0,0,317,173.05Z"/><path class="cls-10" d="M180.67,169.5c-.55,0-1.08,0-1.58.08a20,20,0,0,0,6,2.54,28.41,28.41,0,0,0,11.44.09c3,1.59,5.62,3.84,6.38,7.11,1.16,5,9.09,4.06,8.66-1.22a12.36,12.36,0,0,0-5.91-9.74,11.43,11.43,0,0,0,4.6-8.37,3.38,3.38,0,0,0-3.28-3.44c-6.74.6-11.32,6.51-18.53,5.59-6.74-.86-12.83-6.34-14.67-13.11a2.5,2.5,0,0,0-3-1.85,18.61,18.61,0,0,0,1,12.82C173.75,164.42,177,167,180.67,169.5Z"/><path class="cls-10" d="M234.27,110.38a15.49,15.49,0,0,0,.57,11.08c1.69,3.74,4.83,5.53,8,5.06A8.27,8.27,0,0,0,249.7,118c0-1.4-.78-3.07-1.87-3.32-1.41-.34-3.17-.77-4.1.42-.59.76-1,3.46-4.23,2.4-2.68-.89-3.73-6.84,2.76-15.31a13.39,13.39,0,0,0-3.4,3.11,10,10,0,0,0-.74-1A15.6,15.6,0,0,0,234.27,110.38Z"/><path class="cls-10" d="M178.74,135.27c.35,2,1.65,3.95,3.39,4.39a6.1,6.1,0,0,0-1.59-.45,7.77,7.77,0,0,0,5.31.73c3.93-.81,4.2-5.78,2.14-8.48-1.32-1.72-.39-4.6,1.38-5.92a8.75,8.75,0,0,1,10.06-.26c8,5.34,5.35,18.67,1.25,22.28-5.58,4.91-.54,9,2.68,6.87,8.22-5.45,9.95-12.6,9.65-19-.32-6.81-4.6-12.22-9.94-15.44-1.56-.94-3-1.32-2.53-4.18-.57,2.08-1.72,4-.58,5.23a18.23,18.23,0,0,0-11.45-.1,15.27,15.27,0,0,0-8.85,8.28A10.9,10.9,0,0,0,178.74,135.27Z"/><path class="cls-10" d="M349.87,169.63c.55,0,1.08,0,1.58.08a20.2,20.2,0,0,1-6,2.53,28.44,28.44,0,0,1-11.44.07c-3,1.59-5.63,3.84-6.39,7.1-1.17,5-9.1,4.05-8.66-1.23a12.35,12.35,0,0,1,5.92-9.73,11.49,11.49,0,0,1-4.59-8.37,3.38,3.38,0,0,1,3.29-3.44c6.73.61,11.31,6.53,18.52,5.62,6.74-.86,12.84-6.32,14.69-13.09a2.5,2.5,0,0,1,3-1.85,18.61,18.61,0,0,1-1.05,12.82C356.79,164.56,353.56,167.12,349.87,169.63Z"/><path class="cls-10" d="M358.75,172.54a2.2,2.2,0,0,0-1.67,3.07,9.27,9.27,0,0,1-1.19,9c-1.87,2.25-4.92,2.27-6.82,4.41a3.94,3.94,0,0,0-.84,1.62,2.44,2.44,0,0,0,.26,2.86c4.09,4.68-15.13,16.4-21,6a2.67,2.67,0,0,0-2.46-1.38,2.28,2.28,0,0,0-2.1.51c-3.93,3.23-10.07,7.44-15.25,4.48a9,9,0,0,1-2.62-2.26,4.5,4.5,0,0,0-.85-1.3,11.59,11.59,0,0,1,.4-10.84,2.23,2.23,0,0,0-2.95-3.1c-5.49,2.72-6.84,8.72-5.65,14.47-2.05,1.23-4.05,2.77-6.26,3.41A18.61,18.61,0,0,1,275.62,202c-2.79-1.52-6.93-3.62-6.94-14.54,0-4,.28-8,.41-12q.26-7.12.47-14.24a1.88,1.88,0,0,0,.14-.42,37.55,37.55,0,0,1,5-13.45c2.44-4.05,5.66-6.52,8.85-9.81a3,3,0,0,0-1.22-4.85c-3.57-1.44-6.7.42-9.18,3.19a1.69,1.69,0,0,1-2.95-1.24c0-1.86,0-3.73,0-5.6-.05-3.72-.28-7.42-.63-11.11a42.16,42.16,0,0,0-3.09-11.51,1.6,1.6,0,0,0-3.14.45c-.4,4.15-2,8.11-1.77,12.37.22,3.7.66,5.3.83,9,.09,1.86.41,4.2.69,6.52a1.72,1.72,0,0,1-2.8,1.59,7.4,7.4,0,0,0-8.94-1,1.66,1.66,0,0,0,.79,3c6.33.46,7,8.31,8,13.38.77,4.13,2.24,7.86,2.79,11.93.52,3.88-1,7.83-.65,11.72,1.49,17.64-4.34,24.9-7.41,26.57a18.59,18.59,0,0,1-14.14,1.52c-2.21-.64-4.2-2.18-6.25-3.42,1.19-5.74-.14-11.74-5.63-14.47a2.23,2.23,0,0,0-3,3.09,11.61,11.61,0,0,1,.4,10.85,4.28,4.28,0,0,0-.86,1.29,9,9,0,0,1-2.63,2.26c-5.17,2.95-11.31-1.27-15.24-4.5a2.26,2.26,0,0,0-2.09-.52,2.65,2.65,0,0,0-2.46,1.38c-5.89,10.36-25.09-1.39-21-6.06a2.45,2.45,0,0,0,.26-2.86,3.71,3.71,0,0,0-.84-1.62c-1.89-2.14-4.95-2.18-6.81-4.43a9.27,9.27,0,0,1-1.17-9,2.19,2.19,0,0,0-1.68-3.07c-6.33,6.81-1.83,21.36,6.39,20.37-2.06,1.34-2.82,4.6-2.21,7.28a12.74,12.74,0,0,0,4.21,6.5c3.52,3.12,8,4.94,12.35,4.4A13.29,13.29,0,0,0,203,202.59c4.85,13.2,23.65,12.39,27.88.56,3.12,3.32,6.74,6.43,10.92,7.22,14.92,2.8,20.62-2,22.44-7.31a2.89,2.89,0,0,0,2.08-.19c2.84,5.84,9.52,9.94,22.42,7.53,4.19-.78,7.81-3.88,10.94-7.2,4.22,11.84,23,12.68,27.88-.52A13.28,13.28,0,0,0,338,211.06c4.38.55,8.83-1.27,12.35-4.38a12.69,12.69,0,0,0,4.22-6.5c.62-2.68-.14-5.94-2.2-7.28C360.56,193.9,365.08,179.36,358.75,172.54Z"/><path class="cls-10" d="M296.35,110.43a15.52,15.52,0,0,1-.58,11.07c-1.7,3.74-4.85,5.53-8,5a8.26,8.26,0,0,1-6.86-8.57c0-1.39.78-3.06,1.87-3.32,1.41-.33,3.18-.76,4.1.43.59.76,1,3.47,4.23,2.41,2.68-.89,3.73-6.83-2.74-15.31a13.55,13.55,0,0,1,3.4,3.11,10,10,0,0,1,.74-1A15.74,15.74,0,0,1,296.35,110.43Z"/><path class="cls-10" d="M351.84,135.39c-.35,2.06-1.65,4-3.39,4.39a6.52,6.52,0,0,1,1.59-.45,7.71,7.71,0,0,1-5.31.72c-3.93-.81-4.2-5.78-2.13-8.47,1.32-1.73.4-4.6-1.37-5.93a8.75,8.75,0,0,0-10.06-.27c-8,5.33-5.37,18.66-1.28,22.27,5.58,4.93.52,9-2.69,6.87-8.22-5.46-9.93-12.61-9.62-19,.32-6.8,4.61-12.2,10-15.42,1.55-.94,3-1.31,2.54-4.17.56,2.08,1.71,4,.56,5.23A18.26,18.26,0,0,1,342.1,121a15.23,15.23,0,0,1,8.83,8.29A10.78,10.78,0,0,1,351.84,135.39Z"/><path class="cls-11" d="M238.41,103.76c-4.84,5.56-8.7,16.06-.87,21,2.9,1.85,7.16,2.48,10,.16,2.39-2,3.21-5.71,1.35-8.25a.65.65,0,0,0-1.18.5c.84,4.07-1.62,7.79-6.26,6.87a8,8,0,0,1-6.14-6.25c-1.08-4.74,1.54-9.53,4.19-13.24.45-.63-.57-1.42-1.08-.83Z"/><path class="cls-11" d="M199.06,121c9.71,8.1,9.34,20.34,1.92,29.8-.47.6.14,1.68.9,1.16,10.59-7.17,9.08-26.09-2.06-31.94-.6-.32-1.33.5-.76,1Z"/><path class="cls-11" d="M180.67,169.45c4,.32,8-.29,11.93,0,5.59.4,8.93,2.62,12.34,7,.62.81,2.16.41,1.8-.76-3.12-10.05-18.15-10.14-26.19-7.21a.47.47,0,0,0,.12.92Z"/><path class="cls-11" d="M196.58,169.38a11.69,11.69,0,0,0,5-3.11c1.39-1.37,2.9-3.18,3.13-5.17.09-.86-1.06-1.16-1.59-.66-1.27,1.18-2,2.89-3.19,4.18a22.71,22.71,0,0,1-4,3.31.8.8,0,0,0,.62,1.45Z"/><path class="cls-11" d="M231.49,203.53a17.43,17.43,0,0,0,.43-13.56c-.77-2.21-2.43-6.12-5.28-6.11a.81.81,0,0,0-.22,1.58c2.16.68,3.29,5.11,3.77,6.93a18.5,18.5,0,0,1-.07,10.58c-.26.8,1,1.35,1.37.58Z"/><path class="cls-11" d="M247.27,185.53c-.32-3.95,5.48-4.81,8-4.24a8.87,8.87,0,0,1,5.32,3.77A21.41,21.41,0,0,1,264,195.82a1.3,1.3,0,0,0,2.59,0c.41-6-2.66-13.91-8.44-16.44-3.94-1.72-15-.13-12.3,6.35.29.69,1.53.72,1.46-.2Z"/><path class="cls-11" d="M291.2,104.63c2.65,3.72,5.25,8.5,4.17,13.25a7.9,7.9,0,0,1-5.22,5.92c-4.82,1.59-8.15-1.92-7.18-6.56a.65.65,0,0,0-1.18-.5c-1.87,2.53-1.05,6.28,1.35,8.25,2.83,2.32,7.08,1.68,10-.15,7.86-4.94,4-15.5-.84-21-.5-.59-1.53.19-1.08.83Z"/><path class="cls-11" d="M330.85,120.11c-11.15,5.84-12.68,24.76-2.1,32,.75.51,1.37-.56.9-1.17-7.41-9.46-7.77-21.7,2-29.79.56-.48-.16-1.3-.76-1Z"/><path class="cls-11" d="M350.06,168.66c-8.05-2.95-23.07-2.88-26.2,7.17-.28.89,1,1.76,1.64,1,3.1-4,5.94-6.42,11.13-7.07,4.43-.55,8.87.21,13.3-.14a.47.47,0,0,0,.13-.92Z"/><path class="cls-11" d="M334.64,168a23.22,23.22,0,0,1-4-3.32c-1.18-1.29-1.91-3-3.17-4.18-.54-.49-1.69-.19-1.59.66.22,2,1.72,3.79,3.11,5.17a11.8,11.8,0,0,0,5,3.13c.91.26,1.32-1,.61-1.46Z"/><path class="cls-11" d="M300.44,203a18.41,18.41,0,0,1-.05-10.58c.48-1.83,1.61-6.25,3.77-6.92a.81.81,0,0,0-.21-1.58c-2.85,0-4.52,3.91-5.29,6.1a17.48,17.48,0,0,0,.4,13.56c.37.76,1.64.23,1.38-.58Z"/><path class="cls-11" d="M284.77,185.75c1.32-3.37-2.06-5.91-5-6.8a10.84,10.84,0,0,0-10.7,2.85c-5.43,5.49-5.44,14.16-5.44,21.37,0,1.72,2.4,1.62,2.59,0,.44-3.68.17-7.52.93-11.15a17.63,17.63,0,0,1,3.51-7.89,8.88,8.88,0,0,1,4.26-2.77c2.53-.7,8.84,0,8.39,4.2-.09.89,1.18.91,1.46.19Z"/><path class="cls-11" d="M264.47,106.15c-.34,3.24.2,6.42.39,9.65.3,5.09.14,10.17.25,15.26a.89.89,0,0,0,1.78,0A160.21,160.21,0,0,0,265.54,106c-.1-.65-1-.41-1.07.15Z"/><path class="cls-11" d="M255.41,137.65c5.39,4.11,8.81,8.81,9.63,15.62a80.07,80.07,0,0,1,.24,11.17c-.17,8-.63,16.08-.6,24.12a.61.61,0,0,0,1.22,0c.41-9.52.89-19.08.71-28.61s-2.55-17.23-10.92-22.77c-.3-.2-.55.26-.28.47Z"/><path class="cls-11" d="M266.34,165.38c.8-10.75,2.66-24.56,13.78-29.49.52-.23.15-1.09-.38-.92-12,3.8-13.75,19.92-14.12,30.41,0,.46.69.45.72,0Z"/><path class="cls-11" d="M214.67,175.5c7-11,18.7-5.29,28.68-3.65,4.89.81,10.32-.22,12.5-5.14a.37.37,0,0,0-.64-.37c-6.7,8.76-17.35,1.59-26,1.24-6.27-.26-11.86,2.1-15.14,7.57a.35.35,0,0,0,.6.35Z"/><path class="cls-11" d="M320.78,175.23c-3.27-5.46-8.85-7.84-15.13-7.59-8.65.33-19.31,7.49-26-1.28a.37.37,0,0,0-.64.37c2.17,4.92,7.61,6,12.5,5.16,10-1.63,21.66-7.36,28.67,3.69.24.37.83,0,.6-.35Z"/><path class="cls-11" d="M350.44,170c6.88-4.78,12-11.34,11.08-20.21-.66-6.65-6.1-13.2-13.27-10.94l.77,1.82c6.33-2.74,4-11.3.59-15.48-4.77-5.89-12.19-6.9-19.17-5l1,1.67c4-4.89-.73-11.46-4.63-14.77-5.18-4.4-12.37-6.2-17.67-1.08l1.57.2c-2.78-4.82-7.79-8.24-13.53-6.63a10.42,10.42,0,0,0-3.84,1.91c-1.66,1.43-.74,1.15-1.86.94-1.47-.28-3.38-2.31-5-2.88-7.77-2.74-20-1.29-22.37,8l2,.26C265,98.16,252.4,96.58,245,99.29a19.36,19.36,0,0,0-3.58,1.73c.09-.06-2.4,1.64-2.24,1.64-.76,0-2.18-1.59-2.89-2a11.54,11.54,0,0,0-4-1.44c-5.33-.81-9.7,2.48-12.25,6.9l1.57-.2c-5.14-5.3-12-4.08-17.23.49-3.61,3.15-9,10.29-5.25,15.12l1.13-1.47c-7-1.91-14.4-.91-19.18,5-3.39,4.17-5.75,12.73.57,15.49l.77-1.83c-7.19-2.28-12.57,4.3-13.28,10.93-1,8.86,4.21,15.45,11.06,20.23l.5-1.87c-7.75.25-13.16,5.46-12.87,13.38.21,5.75,3.73,12.86,10.37,12.41l-.71-1.71c-6.89,6.13.43,15.33,6.68,18.33,7.81,3.74,16.12.47,19.7-7.3l-1.83-.24c5.31,13,24.34,14.11,29.8.56l-1.67.45c7.21,7.45,18.06,10.82,28.13,6.93,3.22-1.24,6.7-3.81,7.62-7.35H264c1.76,4.26,7.13,6.41,11.24,7.37,10.1,2.35,18,.58,25.22-6.9l-1.67-.44c5.43,13.54,24.47,12.45,29.8-.52l-1.83.24c3.57,7.76,11.88,11.05,19.69,7.32,6.26-3,13.59-12.18,6.7-18.32l-.71,1.71c13,.86,13.39-29.05-2.73-25.76-1.26.26-.73,2.19.53,1.93,13.12-2.68,12.31,22.5,2.2,21.83a1,1,0,0,0-.71,1.7c6.68,6-3,14.73-8.85,16.11-6.35,1.5-11.75-1.78-14.39-7.53-.4-.88-1.54-.46-1.83.24-4.55,11.08-21.26,12.18-25.94.51a1,1,0,0,0-1.68-.44c-3.45,3.58-6.91,6.55-12,7a35.22,35.22,0,0,1-11.26-.66c-3.39-.77-8.58-2.9-9.85-6a1,1,0,0,0-1.93,0c-.74,2.85-3.66,4.92-6.22,6-9.3,3.74-19.53.47-26.19-6.42a1,1,0,0,0-1.67.44c-4.69,11.66-21.4,10.54-25.94-.56-.29-.69-1.43-1.11-1.83-.24-2.57,5.59-8.1,9.25-14.41,7.51-5.71-1.58-15.67-10-8.82-16.12a1,1,0,0,0-.71-1.7c-5.49.37-8.2-5.73-8.37-10.41-.25-6.74,4.2-11.16,10.87-11.38a1,1,0,0,0,.51-1.86c-4.93-3.43-8.77-7.36-9.84-13.52s2.14-16.63,10.52-14c1.06.34,1.82-1.37.77-1.83-6.82-3-1.16-12.43,2.83-15.18,4.29-3,9.36-3,14.24-1.62.76.21,1.68-.75,1.13-1.47-2.9-3.75,1.52-9.48,4.22-12,4.41-4.2,10.41-6,15.11-1.15a1,1,0,0,0,1.57-.2c3.8-6.57,11.23-7.9,16.46-2.18a1,1,0,0,0,1.41,0c5.64-5.21,23.18-8.61,24.44,2.87.12,1.05,1.67,1.45,2,.27,2.5-9.93,19.42-10.09,25.09-3.1a1,1,0,0,0,1.41,0c5.27-5.76,12.69-4.32,16.45,2.2a1,1,0,0,0,1.57.21c4.51-4.36,10.49-2.55,14.85,1.07,2.86,2.39,7.8,8.11,4.63,11.94a1,1,0,0,0,1,1.68c4.86-1.32,10-1.36,14.23,1.64,4,2.83,9.63,12.23,2.81,15.19-1,.45-.3,2.16.77,1.82,8.35-2.62,11.61,7.73,10.5,14s-4.92,10.08-9.85,13.5C348.38,169,349.38,170.71,350.44,170Z"/><path class="cls-27" d="M243.59,144.91c0,7.67-4.2,13.87-13.26,13.87-9.51,0-13.23-6.22-13.23-13.89s5.58-14.59,13.25-13.86S243.59,137.25,243.59,144.91Z"/><path class="cls-11" d="M242.84,144.91c-.24,7.49-4.62,13.08-12.51,13.12-6.87,0-11.58-4.11-12.33-10.89s3.14-15.24,11-15.41a13.42,13.42,0,0,1,13.82,13.18c0,1,1.54,1,1.5,0C244,136.64,237.56,130,229,130.23s-13.21,8.75-12.59,16.44c.62,7.84,6,12.87,13.9,12.86,8.74,0,13.74-6.26,14-14.62C244.37,144,242.87,144,242.84,144.91Z"/><path class="cls-11" d="M237.63,148.23a1.81,1.81,0,0,1-1.77-1.86,5.52,5.52,0,1,0-11,0,1.77,1.77,0,1,1-3.54,0,9.06,9.06,0,1,1,18.11,0A1.81,1.81,0,0,1,237.63,148.23Z"/><path class="cls-27" d="M312.82,145c0,7.67-2.67,13.83-13.25,13.87-9.06,0-13.24-6.22-13.24-13.89s4.2-13.87,13.26-13.86S312.82,137.3,312.82,145Z"/><path class="cls-11" d="M312.07,145c-.13,6.64-2.58,11.9-9.72,12.9-8.11,1.13-14.67-3.25-15.23-11.65-.48-7.2,3.35-13.65,11-14.32,8.47-.75,13.7,5,13.95,13.07a.75.75,0,0,0,1.5,0c-.26-8.66-5.69-15-14.72-14.6-8.79.35-13.75,7.4-13.23,15.85.54,8.63,6.9,13.91,15.48,13.32s12.32-6.43,12.47-14.57A.75.75,0,0,0,312.07,145Z"/><path class="cls-11" d="M306.86,148.28a1.81,1.81,0,0,1-1.77-1.85,5.52,5.52,0,1,0-11,0,1.77,1.77,0,1,1-3.54,0,9.06,9.06,0,1,1,18.11,0A1.81,1.81,0,0,1,306.86,148.28Z"/><path class="cls-28" d="M263.21,380.31c-83.3-.14-111.07-55.63-111-115.8,0-25.92.55-77.14.55-77.14,0,15.91,55.39,22.83,111.31,25s113.12-9.71,113.13-25.62c0,0-1.38,58.41-1.35,77.94C376,329.21,341,380.43,263.21,380.31Z"/><path class="cls-4" d="M263.21,379.31c-20.54-.12-41.45-3.42-59.71-13.29a88.36,88.36,0,0,1-34.86-34.37c-17.45-30.85-15.53-66.25-15.29-100.44q.17-21.93.39-43.84h-2c.35,9.08,13.09,12.86,20.06,15,17.68,5.32,36.52,7.19,54.85,8.77,41.45,3.57,85.43,5.35,125.83-6.52,8.07-2.37,25.26-7,25.7-17.84h-2c-.65,27.45-.75,54.92-1.4,82.37-.84,36-14.13,72.81-45.54,93-19.61,12.63-43,17.1-66,17.16a1,1,0,0,0,0,2c38.46-.11,76.25-14,96.74-48.27,18.84-31.46,16.67-67.57,17.31-102.8q.4-21.75.92-43.5a1,1,0,0,0-2,0c-.4,9.68-17.79,14.06-24.86,16.1-16.94,4.88-34.71,7-52.26,8.11-19.87,1.22-39.74.46-59.58-.87-18.49-1.24-37.11-2.92-55.28-6.72-7.12-1.49-14.39-3.24-21-6.34-3.93-1.84-9.26-4.72-9.45-9.65a1,1,0,0,0-2,0q-.21,19.92-.36,39.85c-.14,18.48-1.17,37.3.72,55.72,3.35,32.79,17.33,64.87,46.4,82.52,19.39,11.78,42.3,15.72,64.71,15.85A1,1,0,0,0,263.21,379.31Z"/><g class="cls-6"><path class="cls-7" d="M377.14,251.59v13.09c0,57.78-31.35,115.69-112.63,115.63-84.41-.06-111-58-111-115.8V251.42c0,57.78,39.93,109.39,111,109.44S377.1,309.37,377.14,251.59Z"/></g><g class="cls-29"><path class="cls-30" d="M265.67,160.7c-61.76,0-113,11.48-113,25.87s51.19,26.18,112.94,26.23,111.83-11.58,111.84-26S327.43,160.74,265.67,160.7ZM337.57,200c-19.17,4.46-44.72,6.9-71.93,6.88s-52.76-2.5-71.93-7c-21.57-5.05-27.27-10.88-27.27-13.26s5.71-8.2,27.29-13.21c19.18-4.45,44.72-6.89,71.94-6.87s52.75,2.5,71.92,7c21.58,5,27.28,10.87,27.28,13.25S359.16,195,337.57,200Z"/><path class="cls-4" d="M265.67,159.7c-22.59,0-45.29,1.33-67.59,5.13-13.4,2.28-29.49,4.89-40.76,13.14-21.81,16,24.91,27.41,33.7,29.21,21.36,4.36,43.29,6.07,65.06,6.52a419.85,419.85,0,0,0,69.34-3.88c7.55-1.11,64.83-9.49,51.17-28.1-2.93-4-7.92-6.39-12.34-8.28a127.63,127.63,0,0,0-24.47-7.16c-24.31-5-49.34-6.51-74.11-6.58a1,1,0,0,0,0,2c20.8.06,41.69,1.2,62.25,4.46,13.57,2.15,28.5,4.71,40.61,11.59,3,1.72,7.11,4.27,7.83,8s-2.53,6.65-5.28,8.56c-10.36,7.23-24.51,9.79-36.67,12-40.42,7.37-83.27,7.43-123.93,2.06-6.49-.86-70.63-11-53.94-27.2,4.1-4,10.09-6.19,15.38-8a161.35,161.35,0,0,1,23.82-5.93c23-4.19,46.56-5.53,69.93-5.56A1,1,0,0,0,265.67,159.7Z"/><path class="cls-4" d="M337.31,199.07c-31.59,7.2-65,8-97.24,6.07-15.46-.94-31-2.64-46.09-6.18-6.62-1.55-13.38-3.38-19.49-6.45-1.79-.9-6.54-3-7-5.39-.35-2.09,2.81-3.89,4.26-4.78,4.87-3,10.55-4.81,16-6.34,14.93-4.17,30.5-6.09,45.92-7.25,32.63-2.47,66.51-1.89,98.65,4.71,7.64,1.56,15.4,3.44,22.54,6.64,2.21,1,8.33,3.36,8.82,6.28.39,2.31-3.34,4.26-4.95,5.2-6.55,3.81-14.2,5.75-21.5,7.49-1.25.3-.72,2.23.53,1.93,7-1.66,14-3.55,20.41-6.84,2.41-1.25,5.78-3,7.08-5.57,2.42-4.83-5.67-8.51-8.88-10-13.88-6.41-29.9-8.68-45-10.46a404.62,404.62,0,0,0-59.27-2.36c-17.77.53-35.65,2-53.11,5.5a119.26,119.26,0,0,0-22.19,6.29c-3.47,1.44-7.63,3.22-10.11,6.2-9.88,11.92,42.85,20.25,47.76,20.92a394,394,0,0,0,64.51,3c19.7-.58,39.52-2.33,58.76-6.71C339.09,200.71,338.56,198.78,337.31,199.07Z"/></g><path class="cls-4" d="M206.48,282.42c-13.21,0-24-11.28-23.95-25.13a4.15,4.15,0,1,1,8.29,0c0,9.05,7,16.43,15.67,16.43s15.68-7.35,15.68-16.41a4.15,4.15,0,1,1,8.3,0C230.46,271.17,219.7,282.43,206.48,282.42Z"/><path class="cls-4" d="M321.52,282.51c-13.22,0-24-11.29-23.95-25.13a4.15,4.15,0,1,1,8.29,0c0,9.06,7,16.43,15.66,16.44s15.69-7.36,15.69-16.41a4.15,4.15,0,1,1,8.29,0C345.49,271.26,334.73,282.51,321.52,282.51Z"/><path class="cls-31" d="M268.08,1.51c-14,18.27-26.45,35.57-33.83,49.94a5.42,5.42,0,0,0,3.61,7.85,48.53,48.53,0,0,0,14.82.62c3.52-.44,6.08,3.41,4.48,6.72l-9,18.71c-1.15,2.38,1.76,4.64,3.61,2.79,16.36-16.32,30.74-32.51,41.91-48.46a4.33,4.33,0,0,0-2.92-6.78,118.87,118.87,0,0,0-27.33-.25,3.63,3.63,0,0,1-3.58-5.21l11-24.09A1.68,1.68,0,0,0,268.08,1.51Z"/><path class="cls-32" d="M264.12,62.3l-9,18.7a2.37,2.37,0,0,0,.72,3c-1.35,1.38-2.71,2.74-4.08,4.12a2.31,2.31,0,0,1-3.61-2.79l9-18.7c1.6-3.32-1-7.18-4.48-6.73a47.9,47.9,0,0,1-14.82-.63,5.42,5.42,0,0,1-3.62-7.84C241.63,37.07,254,19.78,268.08,1.51a1.66,1.66,0,0,1,3,.89c-12.4,16.33-23.16,31.71-29.84,44.71A5.42,5.42,0,0,0,244.82,55a48.22,48.22,0,0,0,14.82.63C263.16,55.13,265.73,59,264.12,62.3Z"/><path class="cls-11" d="M267.22,1c-8.55,11.13-17,22.4-24.61,34.2-2.91,4.52-5.71,9.12-8.25,13.87-1.55,2.91-2.62,6.14-.3,9,2.74,3.39,9.26,3.12,13.14,3.14,1.06,0,4.62-.76,5.48-.31a50.86,50.86,0,0,1,3.51,5.43c0,.88-1.09,2.28-1.47,3.05-2.4,5-5.68,10.13-7.41,15.39-.65,1.94-.37,4.12,1.92,4.84,3.45,1.09,6.72-4.29,8.75-6.37a393.67,393.67,0,0,0,28.24-31.9c3-3.81,14.62-14.84,6.13-19-1.59-.79-3.71-.64-5.44-.79-3.71-.33-7.44-.54-11.17-.56-3,0-5.93.08-8.89.32-2.75.23-6.8.34-5.85-4,.63-2.85,2.77-6,4-8.68l4.71-10.27c.72-1.57,2.38-3.91,2.31-5.76-.1-2.49-2.56-3.24-4.42-1.91-1,.74,0,2.47,1,1.72,2.44-1.74,0,3.65,0,3.59l-3.69,8c-1.9,4.16-4.44,8.42-5.85,12.77-2,6.16,3,6.93,7.8,6.53a113.41,113.41,0,0,1,16.28,0c3.46.22,11.82.35,9.18,6.62-1.08,2.56-3.85,5.32-5.54,7.54A351,351,0,0,1,263.9,74.17q-3,3.17-6,6.28c-.68.7-7.62,8.87-8.9,5.35-.24-.69,2-4.07,2.25-4.67,2.41-5,13.62-21.48,1.4-22.21-3.66-.22-7.21.37-10.93-.06-2.89-.34-6.87-.29-7.12-4.91-.1-1.73,1.68-4.28,2.49-5.76,2.52-4.56,5.27-9,8.12-13.36C252.63,23.53,260.73,12.72,269,2,269.73,1,268,0,267.22,1Z"/><path class="cls-33" d="M288,36.88c-2.59-2.17-5.35-2-8.58-2a112.75,112.75,0,0,0-11.46.94c-6.73.67-10.84-6-11.17-3.44C256.37,36,259.48,39.68,268,40c3.59.14,7.16.6,10.74.85,3.11.22,6.07,1,8.89-.66A2.2,2.2,0,0,0,288,36.88Z"/><text class="cls-34" transform="translate(0.5 444.3) scale(0.96 1)"><tspan class="cls-35">C</tspan><tspan class="cls-36" x="29.96" y="0">O</tspan><tspan x="62.19" y="0">M</tspan><tspan class="cls-37" x="102.65" y="0">P</tspan><tspan x="128.22" y="0">ETE</tspan><tspan class="cls-38" x="206.37" y="0">N</tspan><tspan class="cls-39" x="235.93" y="0">CIAS </tspan><tspan class="cls-40" x="339.7" y="0">D</tspan><tspan class="cls-41" x="369.26" y="0">I</tspan><tspan class="cls-42" x="384.21" y="0">G</tspan><tspan x="416.22" y="0">I</tspan><tspan class="cls-43" x="432.13" y="0">T</tspan><tspan x="455.81" y="0">ALES</tspan></text></g></g></g></svg>